M48
; DRILL file {KiCad 9.0.7} date 2026-05-21T15:31:08+0200
; FORMAT={-:-/ absolute / metric / decimal}
; #@! TF.CreationDate,2026-05-21T15:31:08+02:00
; #@! TF.GenerationSoftware,Kicad,Pcbnew,9.0.7
; #@! TF.FileFunction,Plated,1,2,PTH
FMAT,2
METRIC
; #@! TA.AperFunction,Plated,PTH,ComponentDrill
T1C0.900
; #@! TA.AperFunction,Plated,PTH,ViaDrill
T2C3.200
%
G90
G05
T1
X109.38Y-84.0
X109.5Y-91.5
X109.51Y-122.0
X111.92Y-84.0
X112.04Y-91.5
X112.05Y-122.0
X114.46Y-84.0
X114.58Y-91.5
X114.59Y-122.0
X117.0Y-84.0
X117.12Y-91.5
X117.13Y-122.0
X119.54Y-84.0
X119.66Y-91.5
X119.67Y-122.0
X122.08Y-84.0
X122.2Y-91.5
X122.21Y-122.0
X124.62Y-84.0
X124.74Y-91.5
X124.75Y-122.0
X127.16Y-84.0
X127.28Y-91.5
X127.29Y-122.0
X129.82Y-91.5
X129.83Y-122.0
X132.36Y-91.5
X132.37Y-122.0
X134.9Y-91.5
X134.91Y-122.0
X137.44Y-91.5
X137.45Y-122.0
X139.98Y-91.5
X139.99Y-122.0
X142.52Y-91.5
X142.53Y-122.0
X145.06Y-91.5
X145.07Y-122.0
X147.6Y-91.5
X147.61Y-122.0
T2
X101.5Y-53.0
X101.5Y-125.0
X158.0Y-53.0
X158.0Y-125.0
M30
