%TF.GenerationSoftware,KiCad,Pcbnew,9.0.7*%
%TF.CreationDate,2026-05-21T15:31:06+02:00*%
%TF.ProjectId,FaultyFreezerAlarm,4661756c-7479-4467-9265-657a6572416c,1.1*%
%TF.SameCoordinates,Original*%
%TF.FileFunction,Copper,L2,Bot*%
%TF.FilePolarity,Positive*%
%FSLAX46Y46*%
G04 Gerber Fmt 4.6, Leading zero omitted, Abs format (unit mm)*
G04 Created by KiCad (PCBNEW 9.0.7) date 2026-05-21 15:31:06*
%MOMM*%
%LPD*%
G01*
G04 APERTURE LIST*
%TA.AperFunction,ComponentPad*%
%ADD10C,1.905000*%
%TD*%
%TA.AperFunction,ComponentPad*%
%ADD11C,1.700000*%
%TD*%
%TA.AperFunction,ViaPad*%
%ADD12C,3.500000*%
%TD*%
%TA.AperFunction,Conductor*%
%ADD13C,0.508000*%
%TD*%
%TA.AperFunction,Conductor*%
%ADD14C,0.200000*%
%TD*%
G04 APERTURE END LIST*
D10*
%TO.P,T-SIM-A7670E1,0,I00*%
%TO.N,unconnected-(T-SIM-A7670E1-I00-Pad0)*%
X139990000Y-122000000D03*
%TO.P,T-SIM-A7670E1,01,VBUS*%
%TO.N,unconnected-(T-SIM-A7670E1-VBUS-Pad01)*%
X147610000Y-122000000D03*
D11*
%TO.P,T-SIM-A7670E1,02,I02*%
%TO.N,unconnected-(T-SIM-A7670E1-I02-Pad02)*%
X134900000Y-91500000D03*
D10*
%TO.P,T-SIM-A7670E1,03,GND*%
%TO.N,unconnected-(T-SIM-A7670E1-GND-Pad03)*%
X145070000Y-122000000D03*
D11*
%TO.P,T-SIM-A7670E1,04,I04*%
%TO.N,unconnected-(T-SIM-A7670E1-I04-Pad04)*%
X132360000Y-91500000D03*
D10*
%TO.P,T-SIM-A7670E1,05,I05*%
%TO.N,unconnected-(T-SIM-A7670E1-I05-Pad05)*%
X132370000Y-122000000D03*
%TO.P,T-SIM-A7670E1,06,RST*%
%TO.N,unconnected-(T-SIM-A7670E1-RST-Pad06)*%
X142530000Y-122000000D03*
%TO.P,T-SIM-A7670E1,07,GND*%
%TO.N,unconnected-(T-SIM-A7670E1-GND-Pad07)*%
X117130000Y-122000000D03*
%TO.P,T-SIM-A7670E1,08,VDD3V3*%
%TO.N,unconnected-(T-SIM-A7670E1-VDD3V3-Pad08)*%
X114590000Y-122000000D03*
D11*
%TO.P,T-SIM-A7670E1,09,V_BAT*%
%TO.N,unconnected-(T-SIM-A7670E1-V_BAT-Pad09)*%
X147600000Y-91500000D03*
%TO.P,T-SIM-A7670E1,10,GND*%
%TO.N,Net-(MAX1-GND)*%
X112040000Y-91500000D03*
%TO.P,T-SIM-A7670E1,11,V3V3*%
%TO.N,Net-(MAX1-VIN)*%
X109500000Y-91500000D03*
%TO.P,T-SIM-A7670E1,12,I012*%
%TO.N,unconnected-(T-SIM-A7670E1-I012-Pad12)*%
X145060000Y-91500000D03*
%TO.P,T-SIM-A7670E1,13,I013*%
%TO.N,unconnected-(T-SIM-A7670E1-I013-Pad13)*%
X142520000Y-91500000D03*
%TO.P,T-SIM-A7670E1,14,I014*%
%TO.N,unconnected-(T-SIM-A7670E1-I014-Pad14)*%
X139980000Y-91500000D03*
%TO.P,T-SIM-A7670E1,15,I015*%
%TO.N,Net-(MAX1-CS)*%
X137440000Y-91500000D03*
D10*
%TO.P,T-SIM-A7670E1,18,I018*%
%TO.N,Net-(MAX1-CLK)*%
X129830000Y-122000000D03*
%TO.P,T-SIM-A7670E1,19,I019*%
%TO.N,Net-(MAX1-SDO)*%
X127290000Y-122000000D03*
%TO.P,T-SIM-A7670E1,21,I021*%
%TO.N,unconnected-(T-SIM-A7670E1-I021-Pad21)*%
X122210000Y-122000000D03*
%TO.P,T-SIM-A7670E1,22,I022*%
%TO.N,unconnected-(T-SIM-A7670E1-I022-Pad22)*%
X119670000Y-122000000D03*
%TO.P,T-SIM-A7670E1,23,I023*%
%TO.N,Net-(MAX1-SDI)*%
X124750000Y-122000000D03*
D11*
%TO.P,T-SIM-A7670E1,25,I025*%
%TO.N,unconnected-(T-SIM-A7670E1-I025-Pad25)*%
X124740000Y-91500000D03*
%TO.P,T-SIM-A7670E1,26,I026*%
%TO.N,unconnected-(T-SIM-A7670E1-I026-Pad26)*%
X127280000Y-91500000D03*
%TO.P,T-SIM-A7670E1,27,I027*%
%TO.N,unconnected-(T-SIM-A7670E1-I027-Pad27)*%
X129820000Y-91500000D03*
%TO.P,T-SIM-A7670E1,32,I032*%
%TO.N,unconnected-(T-SIM-A7670E1-I032-Pad32)*%
X114580000Y-91500000D03*
%TO.P,T-SIM-A7670E1,33,I033*%
%TO.N,unconnected-(T-SIM-A7670E1-I033-Pad33)*%
X117120000Y-91500000D03*
%TO.P,T-SIM-A7670E1,34,I034*%
%TO.N,unconnected-(T-SIM-A7670E1-I034-Pad34)*%
X119660000Y-91500000D03*
%TO.P,T-SIM-A7670E1,35,I035*%
%TO.N,unconnected-(T-SIM-A7670E1-I035-Pad35)*%
X122200000Y-91500000D03*
D10*
%TO.P,T-SIM-A7670E1,36,I036*%
%TO.N,unconnected-(T-SIM-A7670E1-I036-Pad36)*%
X137450000Y-122000000D03*
%TO.P,T-SIM-A7670E1,39,I039*%
%TO.N,unconnected-(T-SIM-A7670E1-I039-Pad39)*%
X134910000Y-122000000D03*
%TO.P,T-SIM-A7670E1,RX,UAR0_RX*%
%TO.N,unconnected-(T-SIM-A7670E1-UAR0_RX-PadRX)*%
X112050000Y-122000000D03*
%TO.P,T-SIM-A7670E1,TX,UAR0_TX*%
%TO.N,unconnected-(T-SIM-A7670E1-UAR0_TX-PadTX)*%
X109510000Y-122000000D03*
%TD*%
%TO.P,MAX1,1,VIN*%
%TO.N,Net-(MAX1-VIN)*%
X109380000Y-84000000D03*
%TO.P,MAX1,2,GND*%
%TO.N,Net-(MAX1-GND)*%
X111920000Y-84000000D03*
%TO.P,MAX1,3,3V3*%
%TO.N,unconnected-(MAX1-3V3-Pad3)*%
X114460000Y-84000000D03*
%TO.P,MAX1,4,CLK*%
%TO.N,Net-(MAX1-CLK)*%
X117000000Y-84000000D03*
%TO.P,MAX1,5,SDO*%
%TO.N,Net-(MAX1-SDO)*%
X119540000Y-84000000D03*
%TO.P,MAX1,6,SDI*%
%TO.N,Net-(MAX1-SDI)*%
X122080000Y-84000000D03*
%TO.P,MAX1,7,CS*%
%TO.N,Net-(MAX1-CS)*%
X124620000Y-84000000D03*
%TO.P,MAX1,8,RDY*%
%TO.N,unconnected-(MAX1-RDY-Pad8)*%
X127160000Y-84000000D03*
%TD*%
D12*
%TO.N,*%
X158000000Y-53000000D03*
X158000000Y-125000000D03*
X101500000Y-125000000D03*
X101500000Y-53000000D03*
%TD*%
D13*
%TO.N,Net-(MAX1-VIN)*%
X109380000Y-84000000D02*
X109380000Y-91380000D01*
X109380000Y-91380000D02*
X109500000Y-91500000D01*
D14*
X109460000Y-91460000D02*
X109500000Y-91500000D01*
D13*
%TO.N,Net-(MAX1-CLK)*%
X129915000Y-122000000D02*
X129830000Y-122000000D01*
X117000000Y-84000000D02*
X117000000Y-81000000D01*
X154000000Y-79000000D02*
X154000000Y-111500000D01*
X149500000Y-74500000D02*
X154000000Y-79000000D01*
X149000000Y-116500000D02*
X135415000Y-116500000D01*
X123500000Y-74500000D02*
X149500000Y-74500000D01*
X117000000Y-81000000D02*
X123500000Y-74500000D01*
X135415000Y-116500000D02*
X129915000Y-122000000D01*
X154000000Y-111500000D02*
X149000000Y-116500000D01*
%TO.N,Net-(MAX1-GND)*%
X111920000Y-91380000D02*
X112040000Y-91500000D01*
D14*
X112000000Y-91460000D02*
X112040000Y-91500000D01*
D13*
X111920000Y-84000000D02*
X111920000Y-91380000D01*
%TO.N,Net-(MAX1-SDI)*%
X124750000Y-121750000D02*
X124750000Y-122000000D01*
X147984000Y-77500000D02*
X151000000Y-80516000D01*
X124500000Y-77500000D02*
X147984000Y-77500000D01*
X122080000Y-84000000D02*
X122080000Y-79920000D01*
X122080000Y-79920000D02*
X124500000Y-77500000D01*
X151000000Y-80516000D02*
X151000000Y-110484000D01*
X133000000Y-113500000D02*
X124750000Y-121750000D01*
X147984000Y-113500000D02*
X133000000Y-113500000D01*
X151000000Y-110484000D02*
X147984000Y-113500000D01*
D14*
%TO.N,Net-(MAX1-CS)*%
X137200000Y-91500000D02*
X137440000Y-91500000D01*
D13*
X124620000Y-84000000D02*
X124620000Y-84120000D01*
X128560000Y-88060000D02*
X134000000Y-88060000D01*
X124620000Y-84120000D02*
X128560000Y-88060000D01*
X134000000Y-88060000D02*
X137440000Y-91500000D01*
%TO.N,Net-(MAX1-SDO)*%
X148500000Y-115000000D02*
X134290000Y-115000000D01*
X152500000Y-80000000D02*
X152500000Y-111000000D01*
X152500000Y-111000000D02*
X148500000Y-115000000D01*
X119540000Y-80460000D02*
X124000000Y-76000000D01*
X124000000Y-76000000D02*
X148500000Y-76000000D01*
X148500000Y-76000000D02*
X152500000Y-80000000D01*
X134290000Y-115000000D02*
X127290000Y-122000000D01*
X119540000Y-84000000D02*
X119540000Y-80460000D01*
%TD*%
M02*
