%TF.GenerationSoftware,KiCad,Pcbnew,9.0.7*%
%TF.CreationDate,2026-05-21T15:31:06+02:00*%
%TF.ProjectId,FaultyFreezerAlarm,4661756c-7479-4467-9265-657a6572416c,1.1*%
%TF.SameCoordinates,Original*%
%TF.FileFunction,Legend,Top*%
%TF.FilePolarity,Positive*%
%FSLAX46Y46*%
G04 Gerber Fmt 4.6, Leading zero omitted, Abs format (unit mm)*
G04 Created by KiCad (PCBNEW 9.0.7) date 2026-05-21 15:31:06*
%MOMM*%
%LPD*%
G01*
G04 APERTURE LIST*
%ADD10C,0.100000*%
%ADD11C,0.150000*%
G04 APERTURE END LIST*
D10*
X105803884Y-125872419D02*
X105803884Y-124872419D01*
X105803884Y-124872419D02*
X106184836Y-124872419D01*
X106184836Y-124872419D02*
X106280074Y-124920038D01*
X106280074Y-124920038D02*
X106327693Y-124967657D01*
X106327693Y-124967657D02*
X106375312Y-125062895D01*
X106375312Y-125062895D02*
X106375312Y-125205752D01*
X106375312Y-125205752D02*
X106327693Y-125300990D01*
X106327693Y-125300990D02*
X106280074Y-125348609D01*
X106280074Y-125348609D02*
X106184836Y-125396228D01*
X106184836Y-125396228D02*
X105803884Y-125396228D01*
X106756265Y-125586704D02*
X107232455Y-125586704D01*
X106661027Y-125872419D02*
X106994360Y-124872419D01*
X106994360Y-124872419D02*
X107327693Y-125872419D01*
X107661027Y-125872419D02*
X107661027Y-124872419D01*
X107661027Y-124872419D02*
X108232455Y-125872419D01*
X108232455Y-125872419D02*
X108232455Y-124872419D01*
X108708646Y-125872419D02*
X108708646Y-124872419D01*
X109137217Y-125586704D02*
X109613407Y-125586704D01*
X109041979Y-125872419D02*
X109375312Y-124872419D01*
X109375312Y-124872419D02*
X109708645Y-125872419D01*
X110565788Y-124920038D02*
X110470550Y-124872419D01*
X110470550Y-124872419D02*
X110327693Y-124872419D01*
X110327693Y-124872419D02*
X110184836Y-124920038D01*
X110184836Y-124920038D02*
X110089598Y-125015276D01*
X110089598Y-125015276D02*
X110041979Y-125110514D01*
X110041979Y-125110514D02*
X109994360Y-125300990D01*
X109994360Y-125300990D02*
X109994360Y-125443847D01*
X109994360Y-125443847D02*
X110041979Y-125634323D01*
X110041979Y-125634323D02*
X110089598Y-125729561D01*
X110089598Y-125729561D02*
X110184836Y-125824800D01*
X110184836Y-125824800D02*
X110327693Y-125872419D01*
X110327693Y-125872419D02*
X110422931Y-125872419D01*
X110422931Y-125872419D02*
X110565788Y-125824800D01*
X110565788Y-125824800D02*
X110613407Y-125777180D01*
X110613407Y-125777180D02*
X110613407Y-125443847D01*
X110613407Y-125443847D02*
X110422931Y-125443847D01*
X111041979Y-124872419D02*
X111041979Y-125681942D01*
X111041979Y-125681942D02*
X111089598Y-125777180D01*
X111089598Y-125777180D02*
X111137217Y-125824800D01*
X111137217Y-125824800D02*
X111232455Y-125872419D01*
X111232455Y-125872419D02*
X111422931Y-125872419D01*
X111422931Y-125872419D02*
X111518169Y-125824800D01*
X111518169Y-125824800D02*
X111565788Y-125777180D01*
X111565788Y-125777180D02*
X111613407Y-125681942D01*
X111613407Y-125681942D02*
X111613407Y-124872419D01*
X112041979Y-125586704D02*
X112518169Y-125586704D01*
X111946741Y-125872419D02*
X112280074Y-124872419D01*
X112280074Y-124872419D02*
X112613407Y-125872419D01*
X114280074Y-125872419D02*
X113946741Y-125396228D01*
X113708646Y-125872419D02*
X113708646Y-124872419D01*
X113708646Y-124872419D02*
X114089598Y-124872419D01*
X114089598Y-124872419D02*
X114184836Y-124920038D01*
X114184836Y-124920038D02*
X114232455Y-124967657D01*
X114232455Y-124967657D02*
X114280074Y-125062895D01*
X114280074Y-125062895D02*
X114280074Y-125205752D01*
X114280074Y-125205752D02*
X114232455Y-125300990D01*
X114232455Y-125300990D02*
X114184836Y-125348609D01*
X114184836Y-125348609D02*
X114089598Y-125396228D01*
X114089598Y-125396228D02*
X113708646Y-125396228D01*
X114851503Y-125872419D02*
X114756265Y-125824800D01*
X114756265Y-125824800D02*
X114708646Y-125777180D01*
X114708646Y-125777180D02*
X114661027Y-125681942D01*
X114661027Y-125681942D02*
X114661027Y-125396228D01*
X114661027Y-125396228D02*
X114708646Y-125300990D01*
X114708646Y-125300990D02*
X114756265Y-125253371D01*
X114756265Y-125253371D02*
X114851503Y-125205752D01*
X114851503Y-125205752D02*
X114994360Y-125205752D01*
X114994360Y-125205752D02*
X115089598Y-125253371D01*
X115089598Y-125253371D02*
X115137217Y-125300990D01*
X115137217Y-125300990D02*
X115184836Y-125396228D01*
X115184836Y-125396228D02*
X115184836Y-125681942D01*
X115184836Y-125681942D02*
X115137217Y-125777180D01*
X115137217Y-125777180D02*
X115089598Y-125824800D01*
X115089598Y-125824800D02*
X114994360Y-125872419D01*
X114994360Y-125872419D02*
X114851503Y-125872419D01*
X115613408Y-125872419D02*
X115613408Y-124872419D01*
X115613408Y-125253371D02*
X115708646Y-125205752D01*
X115708646Y-125205752D02*
X115899122Y-125205752D01*
X115899122Y-125205752D02*
X115994360Y-125253371D01*
X115994360Y-125253371D02*
X116041979Y-125300990D01*
X116041979Y-125300990D02*
X116089598Y-125396228D01*
X116089598Y-125396228D02*
X116089598Y-125681942D01*
X116089598Y-125681942D02*
X116041979Y-125777180D01*
X116041979Y-125777180D02*
X115994360Y-125824800D01*
X115994360Y-125824800D02*
X115899122Y-125872419D01*
X115899122Y-125872419D02*
X115708646Y-125872419D01*
X115708646Y-125872419D02*
X115613408Y-125824800D01*
X116518170Y-125872419D02*
X116518170Y-125205752D01*
X116518170Y-124872419D02*
X116470551Y-124920038D01*
X116470551Y-124920038D02*
X116518170Y-124967657D01*
X116518170Y-124967657D02*
X116565789Y-124920038D01*
X116565789Y-124920038D02*
X116518170Y-124872419D01*
X116518170Y-124872419D02*
X116518170Y-124967657D01*
X116994360Y-125205752D02*
X116994360Y-125872419D01*
X116994360Y-125300990D02*
X117041979Y-125253371D01*
X117041979Y-125253371D02*
X117137217Y-125205752D01*
X117137217Y-125205752D02*
X117280074Y-125205752D01*
X117280074Y-125205752D02*
X117375312Y-125253371D01*
X117375312Y-125253371D02*
X117422931Y-125348609D01*
X117422931Y-125348609D02*
X117422931Y-125872419D01*
X122137217Y-125348609D02*
X121803884Y-125348609D01*
X121803884Y-125872419D02*
X121803884Y-124872419D01*
X121803884Y-124872419D02*
X122280074Y-124872419D01*
X123089598Y-125872419D02*
X123089598Y-125348609D01*
X123089598Y-125348609D02*
X123041979Y-125253371D01*
X123041979Y-125253371D02*
X122946741Y-125205752D01*
X122946741Y-125205752D02*
X122756265Y-125205752D01*
X122756265Y-125205752D02*
X122661027Y-125253371D01*
X123089598Y-125824800D02*
X122994360Y-125872419D01*
X122994360Y-125872419D02*
X122756265Y-125872419D01*
X122756265Y-125872419D02*
X122661027Y-125824800D01*
X122661027Y-125824800D02*
X122613408Y-125729561D01*
X122613408Y-125729561D02*
X122613408Y-125634323D01*
X122613408Y-125634323D02*
X122661027Y-125539085D01*
X122661027Y-125539085D02*
X122756265Y-125491466D01*
X122756265Y-125491466D02*
X122994360Y-125491466D01*
X122994360Y-125491466D02*
X123089598Y-125443847D01*
X123994360Y-125205752D02*
X123994360Y-125872419D01*
X123565789Y-125205752D02*
X123565789Y-125729561D01*
X123565789Y-125729561D02*
X123613408Y-125824800D01*
X123613408Y-125824800D02*
X123708646Y-125872419D01*
X123708646Y-125872419D02*
X123851503Y-125872419D01*
X123851503Y-125872419D02*
X123946741Y-125824800D01*
X123946741Y-125824800D02*
X123994360Y-125777180D01*
X124613408Y-125872419D02*
X124518170Y-125824800D01*
X124518170Y-125824800D02*
X124470551Y-125729561D01*
X124470551Y-125729561D02*
X124470551Y-124872419D01*
X124851504Y-125205752D02*
X125232456Y-125205752D01*
X124994361Y-124872419D02*
X124994361Y-125729561D01*
X124994361Y-125729561D02*
X125041980Y-125824800D01*
X125041980Y-125824800D02*
X125137218Y-125872419D01*
X125137218Y-125872419D02*
X125232456Y-125872419D01*
X125470552Y-125205752D02*
X125708647Y-125872419D01*
X125946742Y-125205752D02*
X125708647Y-125872419D01*
X125708647Y-125872419D02*
X125613409Y-126110514D01*
X125613409Y-126110514D02*
X125565790Y-126158133D01*
X125565790Y-126158133D02*
X125470552Y-126205752D01*
X126661028Y-125348609D02*
X126327695Y-125348609D01*
X126327695Y-125872419D02*
X126327695Y-124872419D01*
X126327695Y-124872419D02*
X126803885Y-124872419D01*
X127184838Y-125872419D02*
X127184838Y-125205752D01*
X127184838Y-125396228D02*
X127232457Y-125300990D01*
X127232457Y-125300990D02*
X127280076Y-125253371D01*
X127280076Y-125253371D02*
X127375314Y-125205752D01*
X127375314Y-125205752D02*
X127470552Y-125205752D01*
X128184838Y-125824800D02*
X128089600Y-125872419D01*
X128089600Y-125872419D02*
X127899124Y-125872419D01*
X127899124Y-125872419D02*
X127803886Y-125824800D01*
X127803886Y-125824800D02*
X127756267Y-125729561D01*
X127756267Y-125729561D02*
X127756267Y-125348609D01*
X127756267Y-125348609D02*
X127803886Y-125253371D01*
X127803886Y-125253371D02*
X127899124Y-125205752D01*
X127899124Y-125205752D02*
X128089600Y-125205752D01*
X128089600Y-125205752D02*
X128184838Y-125253371D01*
X128184838Y-125253371D02*
X128232457Y-125348609D01*
X128232457Y-125348609D02*
X128232457Y-125443847D01*
X128232457Y-125443847D02*
X127756267Y-125539085D01*
X129041981Y-125824800D02*
X128946743Y-125872419D01*
X128946743Y-125872419D02*
X128756267Y-125872419D01*
X128756267Y-125872419D02*
X128661029Y-125824800D01*
X128661029Y-125824800D02*
X128613410Y-125729561D01*
X128613410Y-125729561D02*
X128613410Y-125348609D01*
X128613410Y-125348609D02*
X128661029Y-125253371D01*
X128661029Y-125253371D02*
X128756267Y-125205752D01*
X128756267Y-125205752D02*
X128946743Y-125205752D01*
X128946743Y-125205752D02*
X129041981Y-125253371D01*
X129041981Y-125253371D02*
X129089600Y-125348609D01*
X129089600Y-125348609D02*
X129089600Y-125443847D01*
X129089600Y-125443847D02*
X128613410Y-125539085D01*
X129899124Y-125824800D02*
X129803886Y-125872419D01*
X129803886Y-125872419D02*
X129613410Y-125872419D01*
X129613410Y-125872419D02*
X129518172Y-125824800D01*
X129518172Y-125824800D02*
X129470553Y-125729561D01*
X129470553Y-125729561D02*
X129470553Y-125348609D01*
X129470553Y-125348609D02*
X129518172Y-125253371D01*
X129518172Y-125253371D02*
X129613410Y-125205752D01*
X129613410Y-125205752D02*
X129803886Y-125205752D01*
X129803886Y-125205752D02*
X129899124Y-125253371D01*
X129899124Y-125253371D02*
X129946743Y-125348609D01*
X129946743Y-125348609D02*
X129946743Y-125443847D01*
X129946743Y-125443847D02*
X129470553Y-125539085D01*
X130375315Y-125872419D02*
X130375315Y-125205752D01*
X130375315Y-125396228D02*
X130422934Y-125300990D01*
X130422934Y-125300990D02*
X130470553Y-125253371D01*
X130470553Y-125253371D02*
X130565791Y-125205752D01*
X130565791Y-125205752D02*
X130661029Y-125205752D01*
X130946744Y-125586704D02*
X131422934Y-125586704D01*
X130851506Y-125872419D02*
X131184839Y-124872419D01*
X131184839Y-124872419D02*
X131518172Y-125872419D01*
X131994363Y-125872419D02*
X131899125Y-125824800D01*
X131899125Y-125824800D02*
X131851506Y-125729561D01*
X131851506Y-125729561D02*
X131851506Y-124872419D01*
X132803887Y-125872419D02*
X132803887Y-125348609D01*
X132803887Y-125348609D02*
X132756268Y-125253371D01*
X132756268Y-125253371D02*
X132661030Y-125205752D01*
X132661030Y-125205752D02*
X132470554Y-125205752D01*
X132470554Y-125205752D02*
X132375316Y-125253371D01*
X132803887Y-125824800D02*
X132708649Y-125872419D01*
X132708649Y-125872419D02*
X132470554Y-125872419D01*
X132470554Y-125872419D02*
X132375316Y-125824800D01*
X132375316Y-125824800D02*
X132327697Y-125729561D01*
X132327697Y-125729561D02*
X132327697Y-125634323D01*
X132327697Y-125634323D02*
X132375316Y-125539085D01*
X132375316Y-125539085D02*
X132470554Y-125491466D01*
X132470554Y-125491466D02*
X132708649Y-125491466D01*
X132708649Y-125491466D02*
X132803887Y-125443847D01*
X133280078Y-125872419D02*
X133280078Y-125205752D01*
X133280078Y-125396228D02*
X133327697Y-125300990D01*
X133327697Y-125300990D02*
X133375316Y-125253371D01*
X133375316Y-125253371D02*
X133470554Y-125205752D01*
X133470554Y-125205752D02*
X133565792Y-125205752D01*
X133899126Y-125872419D02*
X133899126Y-125205752D01*
X133899126Y-125300990D02*
X133946745Y-125253371D01*
X133946745Y-125253371D02*
X134041983Y-125205752D01*
X134041983Y-125205752D02*
X134184840Y-125205752D01*
X134184840Y-125205752D02*
X134280078Y-125253371D01*
X134280078Y-125253371D02*
X134327697Y-125348609D01*
X134327697Y-125348609D02*
X134327697Y-125872419D01*
X134327697Y-125348609D02*
X134375316Y-125253371D01*
X134375316Y-125253371D02*
X134470554Y-125205752D01*
X134470554Y-125205752D02*
X134613411Y-125205752D01*
X134613411Y-125205752D02*
X134708650Y-125253371D01*
X134708650Y-125253371D02*
X134756269Y-125348609D01*
X134756269Y-125348609D02*
X134756269Y-125872419D01*
X144756265Y-124967657D02*
X144803884Y-124920038D01*
X144803884Y-124920038D02*
X144899122Y-124872419D01*
X144899122Y-124872419D02*
X145137217Y-124872419D01*
X145137217Y-124872419D02*
X145232455Y-124920038D01*
X145232455Y-124920038D02*
X145280074Y-124967657D01*
X145280074Y-124967657D02*
X145327693Y-125062895D01*
X145327693Y-125062895D02*
X145327693Y-125158133D01*
X145327693Y-125158133D02*
X145280074Y-125300990D01*
X145280074Y-125300990D02*
X144708646Y-125872419D01*
X144708646Y-125872419D02*
X145327693Y-125872419D01*
X146280074Y-125872419D02*
X145708646Y-125872419D01*
X145994360Y-125872419D02*
X145994360Y-124872419D01*
X145994360Y-124872419D02*
X145899122Y-125015276D01*
X145899122Y-125015276D02*
X145803884Y-125110514D01*
X145803884Y-125110514D02*
X145708646Y-125158133D01*
X147422931Y-124824800D02*
X146565789Y-126110514D01*
X147946741Y-124872419D02*
X148041979Y-124872419D01*
X148041979Y-124872419D02*
X148137217Y-124920038D01*
X148137217Y-124920038D02*
X148184836Y-124967657D01*
X148184836Y-124967657D02*
X148232455Y-125062895D01*
X148232455Y-125062895D02*
X148280074Y-125253371D01*
X148280074Y-125253371D02*
X148280074Y-125491466D01*
X148280074Y-125491466D02*
X148232455Y-125681942D01*
X148232455Y-125681942D02*
X148184836Y-125777180D01*
X148184836Y-125777180D02*
X148137217Y-125824800D01*
X148137217Y-125824800D02*
X148041979Y-125872419D01*
X148041979Y-125872419D02*
X147946741Y-125872419D01*
X147946741Y-125872419D02*
X147851503Y-125824800D01*
X147851503Y-125824800D02*
X147803884Y-125777180D01*
X147803884Y-125777180D02*
X147756265Y-125681942D01*
X147756265Y-125681942D02*
X147708646Y-125491466D01*
X147708646Y-125491466D02*
X147708646Y-125253371D01*
X147708646Y-125253371D02*
X147756265Y-125062895D01*
X147756265Y-125062895D02*
X147803884Y-124967657D01*
X147803884Y-124967657D02*
X147851503Y-124920038D01*
X147851503Y-124920038D02*
X147946741Y-124872419D01*
X149184836Y-124872419D02*
X148708646Y-124872419D01*
X148708646Y-124872419D02*
X148661027Y-125348609D01*
X148661027Y-125348609D02*
X148708646Y-125300990D01*
X148708646Y-125300990D02*
X148803884Y-125253371D01*
X148803884Y-125253371D02*
X149041979Y-125253371D01*
X149041979Y-125253371D02*
X149137217Y-125300990D01*
X149137217Y-125300990D02*
X149184836Y-125348609D01*
X149184836Y-125348609D02*
X149232455Y-125443847D01*
X149232455Y-125443847D02*
X149232455Y-125681942D01*
X149232455Y-125681942D02*
X149184836Y-125777180D01*
X149184836Y-125777180D02*
X149137217Y-125824800D01*
X149137217Y-125824800D02*
X149041979Y-125872419D01*
X149041979Y-125872419D02*
X148803884Y-125872419D01*
X148803884Y-125872419D02*
X148708646Y-125824800D01*
X148708646Y-125824800D02*
X148661027Y-125777180D01*
X150375312Y-124824800D02*
X149518170Y-126110514D01*
X150661027Y-124967657D02*
X150708646Y-124920038D01*
X150708646Y-124920038D02*
X150803884Y-124872419D01*
X150803884Y-124872419D02*
X151041979Y-124872419D01*
X151041979Y-124872419D02*
X151137217Y-124920038D01*
X151137217Y-124920038D02*
X151184836Y-124967657D01*
X151184836Y-124967657D02*
X151232455Y-125062895D01*
X151232455Y-125062895D02*
X151232455Y-125158133D01*
X151232455Y-125158133D02*
X151184836Y-125300990D01*
X151184836Y-125300990D02*
X150613408Y-125872419D01*
X150613408Y-125872419D02*
X151232455Y-125872419D01*
X151851503Y-124872419D02*
X151946741Y-124872419D01*
X151946741Y-124872419D02*
X152041979Y-124920038D01*
X152041979Y-124920038D02*
X152089598Y-124967657D01*
X152089598Y-124967657D02*
X152137217Y-125062895D01*
X152137217Y-125062895D02*
X152184836Y-125253371D01*
X152184836Y-125253371D02*
X152184836Y-125491466D01*
X152184836Y-125491466D02*
X152137217Y-125681942D01*
X152137217Y-125681942D02*
X152089598Y-125777180D01*
X152089598Y-125777180D02*
X152041979Y-125824800D01*
X152041979Y-125824800D02*
X151946741Y-125872419D01*
X151946741Y-125872419D02*
X151851503Y-125872419D01*
X151851503Y-125872419D02*
X151756265Y-125824800D01*
X151756265Y-125824800D02*
X151708646Y-125777180D01*
X151708646Y-125777180D02*
X151661027Y-125681942D01*
X151661027Y-125681942D02*
X151613408Y-125491466D01*
X151613408Y-125491466D02*
X151613408Y-125253371D01*
X151613408Y-125253371D02*
X151661027Y-125062895D01*
X151661027Y-125062895D02*
X151708646Y-124967657D01*
X151708646Y-124967657D02*
X151756265Y-124920038D01*
X151756265Y-124920038D02*
X151851503Y-124872419D01*
X152565789Y-124967657D02*
X152613408Y-124920038D01*
X152613408Y-124920038D02*
X152708646Y-124872419D01*
X152708646Y-124872419D02*
X152946741Y-124872419D01*
X152946741Y-124872419D02*
X153041979Y-124920038D01*
X153041979Y-124920038D02*
X153089598Y-124967657D01*
X153089598Y-124967657D02*
X153137217Y-125062895D01*
X153137217Y-125062895D02*
X153137217Y-125158133D01*
X153137217Y-125158133D02*
X153089598Y-125300990D01*
X153089598Y-125300990D02*
X152518170Y-125872419D01*
X152518170Y-125872419D02*
X153137217Y-125872419D01*
X153994360Y-124872419D02*
X153803884Y-124872419D01*
X153803884Y-124872419D02*
X153708646Y-124920038D01*
X153708646Y-124920038D02*
X153661027Y-124967657D01*
X153661027Y-124967657D02*
X153565789Y-125110514D01*
X153565789Y-125110514D02*
X153518170Y-125300990D01*
X153518170Y-125300990D02*
X153518170Y-125681942D01*
X153518170Y-125681942D02*
X153565789Y-125777180D01*
X153565789Y-125777180D02*
X153613408Y-125824800D01*
X153613408Y-125824800D02*
X153708646Y-125872419D01*
X153708646Y-125872419D02*
X153899122Y-125872419D01*
X153899122Y-125872419D02*
X153994360Y-125824800D01*
X153994360Y-125824800D02*
X154041979Y-125777180D01*
X154041979Y-125777180D02*
X154089598Y-125681942D01*
X154089598Y-125681942D02*
X154089598Y-125443847D01*
X154089598Y-125443847D02*
X154041979Y-125348609D01*
X154041979Y-125348609D02*
X153994360Y-125300990D01*
X153994360Y-125300990D02*
X153899122Y-125253371D01*
X153899122Y-125253371D02*
X153708646Y-125253371D01*
X153708646Y-125253371D02*
X153613408Y-125300990D01*
X153613408Y-125300990D02*
X153565789Y-125348609D01*
X153565789Y-125348609D02*
X153518170Y-125443847D01*
X138767419Y-114071427D02*
X138767419Y-113499999D01*
X139767419Y-113785713D02*
X138767419Y-113785713D01*
X139386466Y-113166665D02*
X139386466Y-112404761D01*
X139719800Y-111976189D02*
X139767419Y-111833332D01*
X139767419Y-111833332D02*
X139767419Y-111595237D01*
X139767419Y-111595237D02*
X139719800Y-111499999D01*
X139719800Y-111499999D02*
X139672180Y-111452380D01*
X139672180Y-111452380D02*
X139576942Y-111404761D01*
X139576942Y-111404761D02*
X139481704Y-111404761D01*
X139481704Y-111404761D02*
X139386466Y-111452380D01*
X139386466Y-111452380D02*
X139338847Y-111499999D01*
X139338847Y-111499999D02*
X139291228Y-111595237D01*
X139291228Y-111595237D02*
X139243609Y-111785713D01*
X139243609Y-111785713D02*
X139195990Y-111880951D01*
X139195990Y-111880951D02*
X139148371Y-111928570D01*
X139148371Y-111928570D02*
X139053133Y-111976189D01*
X139053133Y-111976189D02*
X138957895Y-111976189D01*
X138957895Y-111976189D02*
X138862657Y-111928570D01*
X138862657Y-111928570D02*
X138815038Y-111880951D01*
X138815038Y-111880951D02*
X138767419Y-111785713D01*
X138767419Y-111785713D02*
X138767419Y-111547618D01*
X138767419Y-111547618D02*
X138815038Y-111404761D01*
X139767419Y-110976189D02*
X138767419Y-110976189D01*
X139767419Y-110499999D02*
X138767419Y-110499999D01*
X138767419Y-110499999D02*
X139481704Y-110166666D01*
X139481704Y-110166666D02*
X138767419Y-109833333D01*
X138767419Y-109833333D02*
X139767419Y-109833333D01*
X139386466Y-109357142D02*
X139386466Y-108595238D01*
X139481704Y-108166666D02*
X139481704Y-107690476D01*
X139767419Y-108261904D02*
X138767419Y-107928571D01*
X138767419Y-107928571D02*
X139767419Y-107595238D01*
X138767419Y-107357142D02*
X138767419Y-106690476D01*
X138767419Y-106690476D02*
X139767419Y-107119047D01*
X138767419Y-105880952D02*
X138767419Y-106071428D01*
X138767419Y-106071428D02*
X138815038Y-106166666D01*
X138815038Y-106166666D02*
X138862657Y-106214285D01*
X138862657Y-106214285D02*
X139005514Y-106309523D01*
X139005514Y-106309523D02*
X139195990Y-106357142D01*
X139195990Y-106357142D02*
X139576942Y-106357142D01*
X139576942Y-106357142D02*
X139672180Y-106309523D01*
X139672180Y-106309523D02*
X139719800Y-106261904D01*
X139719800Y-106261904D02*
X139767419Y-106166666D01*
X139767419Y-106166666D02*
X139767419Y-105976190D01*
X139767419Y-105976190D02*
X139719800Y-105880952D01*
X139719800Y-105880952D02*
X139672180Y-105833333D01*
X139672180Y-105833333D02*
X139576942Y-105785714D01*
X139576942Y-105785714D02*
X139338847Y-105785714D01*
X139338847Y-105785714D02*
X139243609Y-105833333D01*
X139243609Y-105833333D02*
X139195990Y-105880952D01*
X139195990Y-105880952D02*
X139148371Y-105976190D01*
X139148371Y-105976190D02*
X139148371Y-106166666D01*
X139148371Y-106166666D02*
X139195990Y-106261904D01*
X139195990Y-106261904D02*
X139243609Y-106309523D01*
X139243609Y-106309523D02*
X139338847Y-106357142D01*
X138767419Y-105452380D02*
X138767419Y-104785714D01*
X138767419Y-104785714D02*
X139767419Y-105214285D01*
X138767419Y-104214285D02*
X138767419Y-104119047D01*
X138767419Y-104119047D02*
X138815038Y-104023809D01*
X138815038Y-104023809D02*
X138862657Y-103976190D01*
X138862657Y-103976190D02*
X138957895Y-103928571D01*
X138957895Y-103928571D02*
X139148371Y-103880952D01*
X139148371Y-103880952D02*
X139386466Y-103880952D01*
X139386466Y-103880952D02*
X139576942Y-103928571D01*
X139576942Y-103928571D02*
X139672180Y-103976190D01*
X139672180Y-103976190D02*
X139719800Y-104023809D01*
X139719800Y-104023809D02*
X139767419Y-104119047D01*
X139767419Y-104119047D02*
X139767419Y-104214285D01*
X139767419Y-104214285D02*
X139719800Y-104309523D01*
X139719800Y-104309523D02*
X139672180Y-104357142D01*
X139672180Y-104357142D02*
X139576942Y-104404761D01*
X139576942Y-104404761D02*
X139386466Y-104452380D01*
X139386466Y-104452380D02*
X139148371Y-104452380D01*
X139148371Y-104452380D02*
X138957895Y-104404761D01*
X138957895Y-104404761D02*
X138862657Y-104357142D01*
X138862657Y-104357142D02*
X138815038Y-104309523D01*
X138815038Y-104309523D02*
X138767419Y-104214285D01*
X139243609Y-103452380D02*
X139243609Y-103119047D01*
X139767419Y-102976190D02*
X139767419Y-103452380D01*
X139767419Y-103452380D02*
X138767419Y-103452380D01*
X138767419Y-103452380D02*
X138767419Y-102976190D01*
X139767419Y-102023809D02*
X139767419Y-102595237D01*
X139767419Y-102309523D02*
X138767419Y-102309523D01*
X138767419Y-102309523D02*
X138910276Y-102404761D01*
X138910276Y-102404761D02*
X139005514Y-102499999D01*
X139005514Y-102499999D02*
X139053133Y-102595237D01*
X140382419Y-95446115D02*
X139382419Y-95446115D01*
X139382419Y-94779449D02*
X139382419Y-94684211D01*
X139382419Y-94684211D02*
X139430038Y-94588973D01*
X139430038Y-94588973D02*
X139477657Y-94541354D01*
X139477657Y-94541354D02*
X139572895Y-94493735D01*
X139572895Y-94493735D02*
X139763371Y-94446116D01*
X139763371Y-94446116D02*
X140001466Y-94446116D01*
X140001466Y-94446116D02*
X140191942Y-94493735D01*
X140191942Y-94493735D02*
X140287180Y-94541354D01*
X140287180Y-94541354D02*
X140334800Y-94588973D01*
X140334800Y-94588973D02*
X140382419Y-94684211D01*
X140382419Y-94684211D02*
X140382419Y-94779449D01*
X140382419Y-94779449D02*
X140334800Y-94874687D01*
X140334800Y-94874687D02*
X140287180Y-94922306D01*
X140287180Y-94922306D02*
X140191942Y-94969925D01*
X140191942Y-94969925D02*
X140001466Y-95017544D01*
X140001466Y-95017544D02*
X139763371Y-95017544D01*
X139763371Y-95017544D02*
X139572895Y-94969925D01*
X139572895Y-94969925D02*
X139477657Y-94922306D01*
X139477657Y-94922306D02*
X139430038Y-94874687D01*
X139430038Y-94874687D02*
X139382419Y-94779449D01*
X140382419Y-93493735D02*
X140382419Y-94065163D01*
X140382419Y-93779449D02*
X139382419Y-93779449D01*
X139382419Y-93779449D02*
X139525276Y-93874687D01*
X139525276Y-93874687D02*
X139620514Y-93969925D01*
X139620514Y-93969925D02*
X139668133Y-94065163D01*
X139715752Y-92636592D02*
X140382419Y-92636592D01*
X139334800Y-92874687D02*
X140049085Y-93112782D01*
X140049085Y-93112782D02*
X140049085Y-92493735D01*
X135182419Y-94446115D02*
X134182419Y-94446115D01*
X134182419Y-93779449D02*
X134182419Y-93684211D01*
X134182419Y-93684211D02*
X134230038Y-93588973D01*
X134230038Y-93588973D02*
X134277657Y-93541354D01*
X134277657Y-93541354D02*
X134372895Y-93493735D01*
X134372895Y-93493735D02*
X134563371Y-93446116D01*
X134563371Y-93446116D02*
X134801466Y-93446116D01*
X134801466Y-93446116D02*
X134991942Y-93493735D01*
X134991942Y-93493735D02*
X135087180Y-93541354D01*
X135087180Y-93541354D02*
X135134800Y-93588973D01*
X135134800Y-93588973D02*
X135182419Y-93684211D01*
X135182419Y-93684211D02*
X135182419Y-93779449D01*
X135182419Y-93779449D02*
X135134800Y-93874687D01*
X135134800Y-93874687D02*
X135087180Y-93922306D01*
X135087180Y-93922306D02*
X134991942Y-93969925D01*
X134991942Y-93969925D02*
X134801466Y-94017544D01*
X134801466Y-94017544D02*
X134563371Y-94017544D01*
X134563371Y-94017544D02*
X134372895Y-93969925D01*
X134372895Y-93969925D02*
X134277657Y-93922306D01*
X134277657Y-93922306D02*
X134230038Y-93874687D01*
X134230038Y-93874687D02*
X134182419Y-93779449D01*
X134277657Y-93065163D02*
X134230038Y-93017544D01*
X134230038Y-93017544D02*
X134182419Y-92922306D01*
X134182419Y-92922306D02*
X134182419Y-92684211D01*
X134182419Y-92684211D02*
X134230038Y-92588973D01*
X134230038Y-92588973D02*
X134277657Y-92541354D01*
X134277657Y-92541354D02*
X134372895Y-92493735D01*
X134372895Y-92493735D02*
X134468133Y-92493735D01*
X134468133Y-92493735D02*
X134610990Y-92541354D01*
X134610990Y-92541354D02*
X135182419Y-93112782D01*
X135182419Y-93112782D02*
X135182419Y-92493735D01*
X130182419Y-95446115D02*
X129182419Y-95446115D01*
X129182419Y-94779449D02*
X129182419Y-94684211D01*
X129182419Y-94684211D02*
X129230038Y-94588973D01*
X129230038Y-94588973D02*
X129277657Y-94541354D01*
X129277657Y-94541354D02*
X129372895Y-94493735D01*
X129372895Y-94493735D02*
X129563371Y-94446116D01*
X129563371Y-94446116D02*
X129801466Y-94446116D01*
X129801466Y-94446116D02*
X129991942Y-94493735D01*
X129991942Y-94493735D02*
X130087180Y-94541354D01*
X130087180Y-94541354D02*
X130134800Y-94588973D01*
X130134800Y-94588973D02*
X130182419Y-94684211D01*
X130182419Y-94684211D02*
X130182419Y-94779449D01*
X130182419Y-94779449D02*
X130134800Y-94874687D01*
X130134800Y-94874687D02*
X130087180Y-94922306D01*
X130087180Y-94922306D02*
X129991942Y-94969925D01*
X129991942Y-94969925D02*
X129801466Y-95017544D01*
X129801466Y-95017544D02*
X129563371Y-95017544D01*
X129563371Y-95017544D02*
X129372895Y-94969925D01*
X129372895Y-94969925D02*
X129277657Y-94922306D01*
X129277657Y-94922306D02*
X129230038Y-94874687D01*
X129230038Y-94874687D02*
X129182419Y-94779449D01*
X129277657Y-94065163D02*
X129230038Y-94017544D01*
X129230038Y-94017544D02*
X129182419Y-93922306D01*
X129182419Y-93922306D02*
X129182419Y-93684211D01*
X129182419Y-93684211D02*
X129230038Y-93588973D01*
X129230038Y-93588973D02*
X129277657Y-93541354D01*
X129277657Y-93541354D02*
X129372895Y-93493735D01*
X129372895Y-93493735D02*
X129468133Y-93493735D01*
X129468133Y-93493735D02*
X129610990Y-93541354D01*
X129610990Y-93541354D02*
X130182419Y-94112782D01*
X130182419Y-94112782D02*
X130182419Y-93493735D01*
X129182419Y-93160401D02*
X129182419Y-92493735D01*
X129182419Y-92493735D02*
X130182419Y-92922306D01*
X143182419Y-119874687D02*
X142706228Y-120208020D01*
X143182419Y-120446115D02*
X142182419Y-120446115D01*
X142182419Y-120446115D02*
X142182419Y-120065163D01*
X142182419Y-120065163D02*
X142230038Y-119969925D01*
X142230038Y-119969925D02*
X142277657Y-119922306D01*
X142277657Y-119922306D02*
X142372895Y-119874687D01*
X142372895Y-119874687D02*
X142515752Y-119874687D01*
X142515752Y-119874687D02*
X142610990Y-119922306D01*
X142610990Y-119922306D02*
X142658609Y-119969925D01*
X142658609Y-119969925D02*
X142706228Y-120065163D01*
X142706228Y-120065163D02*
X142706228Y-120446115D01*
X143134800Y-119493734D02*
X143182419Y-119350877D01*
X143182419Y-119350877D02*
X143182419Y-119112782D01*
X143182419Y-119112782D02*
X143134800Y-119017544D01*
X143134800Y-119017544D02*
X143087180Y-118969925D01*
X143087180Y-118969925D02*
X142991942Y-118922306D01*
X142991942Y-118922306D02*
X142896704Y-118922306D01*
X142896704Y-118922306D02*
X142801466Y-118969925D01*
X142801466Y-118969925D02*
X142753847Y-119017544D01*
X142753847Y-119017544D02*
X142706228Y-119112782D01*
X142706228Y-119112782D02*
X142658609Y-119303258D01*
X142658609Y-119303258D02*
X142610990Y-119398496D01*
X142610990Y-119398496D02*
X142563371Y-119446115D01*
X142563371Y-119446115D02*
X142468133Y-119493734D01*
X142468133Y-119493734D02*
X142372895Y-119493734D01*
X142372895Y-119493734D02*
X142277657Y-119446115D01*
X142277657Y-119446115D02*
X142230038Y-119398496D01*
X142230038Y-119398496D02*
X142182419Y-119303258D01*
X142182419Y-119303258D02*
X142182419Y-119065163D01*
X142182419Y-119065163D02*
X142230038Y-118922306D01*
X142182419Y-118636591D02*
X142182419Y-118065163D01*
X143182419Y-118350877D02*
X142182419Y-118350877D01*
X132682419Y-94446115D02*
X131682419Y-94446115D01*
X131682419Y-93779449D02*
X131682419Y-93684211D01*
X131682419Y-93684211D02*
X131730038Y-93588973D01*
X131730038Y-93588973D02*
X131777657Y-93541354D01*
X131777657Y-93541354D02*
X131872895Y-93493735D01*
X131872895Y-93493735D02*
X132063371Y-93446116D01*
X132063371Y-93446116D02*
X132301466Y-93446116D01*
X132301466Y-93446116D02*
X132491942Y-93493735D01*
X132491942Y-93493735D02*
X132587180Y-93541354D01*
X132587180Y-93541354D02*
X132634800Y-93588973D01*
X132634800Y-93588973D02*
X132682419Y-93684211D01*
X132682419Y-93684211D02*
X132682419Y-93779449D01*
X132682419Y-93779449D02*
X132634800Y-93874687D01*
X132634800Y-93874687D02*
X132587180Y-93922306D01*
X132587180Y-93922306D02*
X132491942Y-93969925D01*
X132491942Y-93969925D02*
X132301466Y-94017544D01*
X132301466Y-94017544D02*
X132063371Y-94017544D01*
X132063371Y-94017544D02*
X131872895Y-93969925D01*
X131872895Y-93969925D02*
X131777657Y-93922306D01*
X131777657Y-93922306D02*
X131730038Y-93874687D01*
X131730038Y-93874687D02*
X131682419Y-93779449D01*
X132015752Y-92588973D02*
X132682419Y-92588973D01*
X131634800Y-92827068D02*
X132349085Y-93065163D01*
X132349085Y-93065163D02*
X132349085Y-92446116D01*
X114182419Y-120588972D02*
X115182419Y-120255639D01*
X115182419Y-120255639D02*
X114182419Y-119922306D01*
X115182419Y-119588972D02*
X114182419Y-119588972D01*
X114182419Y-119588972D02*
X114182419Y-119350877D01*
X114182419Y-119350877D02*
X114230038Y-119208020D01*
X114230038Y-119208020D02*
X114325276Y-119112782D01*
X114325276Y-119112782D02*
X114420514Y-119065163D01*
X114420514Y-119065163D02*
X114610990Y-119017544D01*
X114610990Y-119017544D02*
X114753847Y-119017544D01*
X114753847Y-119017544D02*
X114944323Y-119065163D01*
X114944323Y-119065163D02*
X115039561Y-119112782D01*
X115039561Y-119112782D02*
X115134800Y-119208020D01*
X115134800Y-119208020D02*
X115182419Y-119350877D01*
X115182419Y-119350877D02*
X115182419Y-119588972D01*
X115182419Y-118588972D02*
X114182419Y-118588972D01*
X114182419Y-118588972D02*
X114182419Y-118350877D01*
X114182419Y-118350877D02*
X114230038Y-118208020D01*
X114230038Y-118208020D02*
X114325276Y-118112782D01*
X114325276Y-118112782D02*
X114420514Y-118065163D01*
X114420514Y-118065163D02*
X114610990Y-118017544D01*
X114610990Y-118017544D02*
X114753847Y-118017544D01*
X114753847Y-118017544D02*
X114944323Y-118065163D01*
X114944323Y-118065163D02*
X115039561Y-118112782D01*
X115039561Y-118112782D02*
X115134800Y-118208020D01*
X115134800Y-118208020D02*
X115182419Y-118350877D01*
X115182419Y-118350877D02*
X115182419Y-118588972D01*
X114182419Y-117684210D02*
X114182419Y-117065163D01*
X114182419Y-117065163D02*
X114563371Y-117398496D01*
X114563371Y-117398496D02*
X114563371Y-117255639D01*
X114563371Y-117255639D02*
X114610990Y-117160401D01*
X114610990Y-117160401D02*
X114658609Y-117112782D01*
X114658609Y-117112782D02*
X114753847Y-117065163D01*
X114753847Y-117065163D02*
X114991942Y-117065163D01*
X114991942Y-117065163D02*
X115087180Y-117112782D01*
X115087180Y-117112782D02*
X115134800Y-117160401D01*
X115134800Y-117160401D02*
X115182419Y-117255639D01*
X115182419Y-117255639D02*
X115182419Y-117541353D01*
X115182419Y-117541353D02*
X115134800Y-117636591D01*
X115134800Y-117636591D02*
X115087180Y-117684210D01*
X114182419Y-116779448D02*
X115182419Y-116446115D01*
X115182419Y-116446115D02*
X114182419Y-116112782D01*
X114182419Y-115874686D02*
X114182419Y-115255639D01*
X114182419Y-115255639D02*
X114563371Y-115588972D01*
X114563371Y-115588972D02*
X114563371Y-115446115D01*
X114563371Y-115446115D02*
X114610990Y-115350877D01*
X114610990Y-115350877D02*
X114658609Y-115303258D01*
X114658609Y-115303258D02*
X114753847Y-115255639D01*
X114753847Y-115255639D02*
X114991942Y-115255639D01*
X114991942Y-115255639D02*
X115087180Y-115303258D01*
X115087180Y-115303258D02*
X115134800Y-115350877D01*
X115134800Y-115350877D02*
X115182419Y-115446115D01*
X115182419Y-115446115D02*
X115182419Y-115731829D01*
X115182419Y-115731829D02*
X115134800Y-115827067D01*
X115134800Y-115827067D02*
X115087180Y-115874686D01*
X135182419Y-120446115D02*
X134182419Y-120446115D01*
X134182419Y-119779449D02*
X134182419Y-119684211D01*
X134182419Y-119684211D02*
X134230038Y-119588973D01*
X134230038Y-119588973D02*
X134277657Y-119541354D01*
X134277657Y-119541354D02*
X134372895Y-119493735D01*
X134372895Y-119493735D02*
X134563371Y-119446116D01*
X134563371Y-119446116D02*
X134801466Y-119446116D01*
X134801466Y-119446116D02*
X134991942Y-119493735D01*
X134991942Y-119493735D02*
X135087180Y-119541354D01*
X135087180Y-119541354D02*
X135134800Y-119588973D01*
X135134800Y-119588973D02*
X135182419Y-119684211D01*
X135182419Y-119684211D02*
X135182419Y-119779449D01*
X135182419Y-119779449D02*
X135134800Y-119874687D01*
X135134800Y-119874687D02*
X135087180Y-119922306D01*
X135087180Y-119922306D02*
X134991942Y-119969925D01*
X134991942Y-119969925D02*
X134801466Y-120017544D01*
X134801466Y-120017544D02*
X134563371Y-120017544D01*
X134563371Y-120017544D02*
X134372895Y-119969925D01*
X134372895Y-119969925D02*
X134277657Y-119922306D01*
X134277657Y-119922306D02*
X134230038Y-119874687D01*
X134230038Y-119874687D02*
X134182419Y-119779449D01*
X134182419Y-119112782D02*
X134182419Y-118493735D01*
X134182419Y-118493735D02*
X134563371Y-118827068D01*
X134563371Y-118827068D02*
X134563371Y-118684211D01*
X134563371Y-118684211D02*
X134610990Y-118588973D01*
X134610990Y-118588973D02*
X134658609Y-118541354D01*
X134658609Y-118541354D02*
X134753847Y-118493735D01*
X134753847Y-118493735D02*
X134991942Y-118493735D01*
X134991942Y-118493735D02*
X135087180Y-118541354D01*
X135087180Y-118541354D02*
X135134800Y-118588973D01*
X135134800Y-118588973D02*
X135182419Y-118684211D01*
X135182419Y-118684211D02*
X135182419Y-118969925D01*
X135182419Y-118969925D02*
X135134800Y-119065163D01*
X135134800Y-119065163D02*
X135087180Y-119112782D01*
X135182419Y-118017544D02*
X135182419Y-117827068D01*
X135182419Y-117827068D02*
X135134800Y-117731830D01*
X135134800Y-117731830D02*
X135087180Y-117684211D01*
X135087180Y-117684211D02*
X134944323Y-117588973D01*
X134944323Y-117588973D02*
X134753847Y-117541354D01*
X134753847Y-117541354D02*
X134372895Y-117541354D01*
X134372895Y-117541354D02*
X134277657Y-117588973D01*
X134277657Y-117588973D02*
X134230038Y-117636592D01*
X134230038Y-117636592D02*
X134182419Y-117731830D01*
X134182419Y-117731830D02*
X134182419Y-117922306D01*
X134182419Y-117922306D02*
X134230038Y-118017544D01*
X134230038Y-118017544D02*
X134277657Y-118065163D01*
X134277657Y-118065163D02*
X134372895Y-118112782D01*
X134372895Y-118112782D02*
X134610990Y-118112782D01*
X134610990Y-118112782D02*
X134706228Y-118065163D01*
X134706228Y-118065163D02*
X134753847Y-118017544D01*
X134753847Y-118017544D02*
X134801466Y-117922306D01*
X134801466Y-117922306D02*
X134801466Y-117731830D01*
X134801466Y-117731830D02*
X134753847Y-117636592D01*
X134753847Y-117636592D02*
X134706228Y-117588973D01*
X134706228Y-117588973D02*
X134610990Y-117541354D01*
X115182419Y-95446115D02*
X114182419Y-95446115D01*
X114182419Y-94779449D02*
X114182419Y-94684211D01*
X114182419Y-94684211D02*
X114230038Y-94588973D01*
X114230038Y-94588973D02*
X114277657Y-94541354D01*
X114277657Y-94541354D02*
X114372895Y-94493735D01*
X114372895Y-94493735D02*
X114563371Y-94446116D01*
X114563371Y-94446116D02*
X114801466Y-94446116D01*
X114801466Y-94446116D02*
X114991942Y-94493735D01*
X114991942Y-94493735D02*
X115087180Y-94541354D01*
X115087180Y-94541354D02*
X115134800Y-94588973D01*
X115134800Y-94588973D02*
X115182419Y-94684211D01*
X115182419Y-94684211D02*
X115182419Y-94779449D01*
X115182419Y-94779449D02*
X115134800Y-94874687D01*
X115134800Y-94874687D02*
X115087180Y-94922306D01*
X115087180Y-94922306D02*
X114991942Y-94969925D01*
X114991942Y-94969925D02*
X114801466Y-95017544D01*
X114801466Y-95017544D02*
X114563371Y-95017544D01*
X114563371Y-95017544D02*
X114372895Y-94969925D01*
X114372895Y-94969925D02*
X114277657Y-94922306D01*
X114277657Y-94922306D02*
X114230038Y-94874687D01*
X114230038Y-94874687D02*
X114182419Y-94779449D01*
X114182419Y-94112782D02*
X114182419Y-93493735D01*
X114182419Y-93493735D02*
X114563371Y-93827068D01*
X114563371Y-93827068D02*
X114563371Y-93684211D01*
X114563371Y-93684211D02*
X114610990Y-93588973D01*
X114610990Y-93588973D02*
X114658609Y-93541354D01*
X114658609Y-93541354D02*
X114753847Y-93493735D01*
X114753847Y-93493735D02*
X114991942Y-93493735D01*
X114991942Y-93493735D02*
X115087180Y-93541354D01*
X115087180Y-93541354D02*
X115134800Y-93588973D01*
X115134800Y-93588973D02*
X115182419Y-93684211D01*
X115182419Y-93684211D02*
X115182419Y-93969925D01*
X115182419Y-93969925D02*
X115134800Y-94065163D01*
X115134800Y-94065163D02*
X115087180Y-94112782D01*
X114277657Y-93112782D02*
X114230038Y-93065163D01*
X114230038Y-93065163D02*
X114182419Y-92969925D01*
X114182419Y-92969925D02*
X114182419Y-92731830D01*
X114182419Y-92731830D02*
X114230038Y-92636592D01*
X114230038Y-92636592D02*
X114277657Y-92588973D01*
X114277657Y-92588973D02*
X114372895Y-92541354D01*
X114372895Y-92541354D02*
X114468133Y-92541354D01*
X114468133Y-92541354D02*
X114610990Y-92588973D01*
X114610990Y-92588973D02*
X115182419Y-93160401D01*
X115182419Y-93160401D02*
X115182419Y-92541354D01*
X130182419Y-120446115D02*
X129182419Y-120446115D01*
X129182419Y-119779449D02*
X129182419Y-119684211D01*
X129182419Y-119684211D02*
X129230038Y-119588973D01*
X129230038Y-119588973D02*
X129277657Y-119541354D01*
X129277657Y-119541354D02*
X129372895Y-119493735D01*
X129372895Y-119493735D02*
X129563371Y-119446116D01*
X129563371Y-119446116D02*
X129801466Y-119446116D01*
X129801466Y-119446116D02*
X129991942Y-119493735D01*
X129991942Y-119493735D02*
X130087180Y-119541354D01*
X130087180Y-119541354D02*
X130134800Y-119588973D01*
X130134800Y-119588973D02*
X130182419Y-119684211D01*
X130182419Y-119684211D02*
X130182419Y-119779449D01*
X130182419Y-119779449D02*
X130134800Y-119874687D01*
X130134800Y-119874687D02*
X130087180Y-119922306D01*
X130087180Y-119922306D02*
X129991942Y-119969925D01*
X129991942Y-119969925D02*
X129801466Y-120017544D01*
X129801466Y-120017544D02*
X129563371Y-120017544D01*
X129563371Y-120017544D02*
X129372895Y-119969925D01*
X129372895Y-119969925D02*
X129277657Y-119922306D01*
X129277657Y-119922306D02*
X129230038Y-119874687D01*
X129230038Y-119874687D02*
X129182419Y-119779449D01*
X130182419Y-118493735D02*
X130182419Y-119065163D01*
X130182419Y-118779449D02*
X129182419Y-118779449D01*
X129182419Y-118779449D02*
X129325276Y-118874687D01*
X129325276Y-118874687D02*
X129420514Y-118969925D01*
X129420514Y-118969925D02*
X129468133Y-119065163D01*
X129610990Y-117922306D02*
X129563371Y-118017544D01*
X129563371Y-118017544D02*
X129515752Y-118065163D01*
X129515752Y-118065163D02*
X129420514Y-118112782D01*
X129420514Y-118112782D02*
X129372895Y-118112782D01*
X129372895Y-118112782D02*
X129277657Y-118065163D01*
X129277657Y-118065163D02*
X129230038Y-118017544D01*
X129230038Y-118017544D02*
X129182419Y-117922306D01*
X129182419Y-117922306D02*
X129182419Y-117731830D01*
X129182419Y-117731830D02*
X129230038Y-117636592D01*
X129230038Y-117636592D02*
X129277657Y-117588973D01*
X129277657Y-117588973D02*
X129372895Y-117541354D01*
X129372895Y-117541354D02*
X129420514Y-117541354D01*
X129420514Y-117541354D02*
X129515752Y-117588973D01*
X129515752Y-117588973D02*
X129563371Y-117636592D01*
X129563371Y-117636592D02*
X129610990Y-117731830D01*
X129610990Y-117731830D02*
X129610990Y-117922306D01*
X129610990Y-117922306D02*
X129658609Y-118017544D01*
X129658609Y-118017544D02*
X129706228Y-118065163D01*
X129706228Y-118065163D02*
X129801466Y-118112782D01*
X129801466Y-118112782D02*
X129991942Y-118112782D01*
X129991942Y-118112782D02*
X130087180Y-118065163D01*
X130087180Y-118065163D02*
X130134800Y-118017544D01*
X130134800Y-118017544D02*
X130182419Y-117922306D01*
X130182419Y-117922306D02*
X130182419Y-117731830D01*
X130182419Y-117731830D02*
X130134800Y-117636592D01*
X130134800Y-117636592D02*
X130087180Y-117588973D01*
X130087180Y-117588973D02*
X129991942Y-117541354D01*
X129991942Y-117541354D02*
X129801466Y-117541354D01*
X129801466Y-117541354D02*
X129706228Y-117588973D01*
X129706228Y-117588973D02*
X129658609Y-117636592D01*
X129658609Y-117636592D02*
X129610990Y-117731830D01*
X111480038Y-94672306D02*
X111432419Y-94767544D01*
X111432419Y-94767544D02*
X111432419Y-94910401D01*
X111432419Y-94910401D02*
X111480038Y-95053258D01*
X111480038Y-95053258D02*
X111575276Y-95148496D01*
X111575276Y-95148496D02*
X111670514Y-95196115D01*
X111670514Y-95196115D02*
X111860990Y-95243734D01*
X111860990Y-95243734D02*
X112003847Y-95243734D01*
X112003847Y-95243734D02*
X112194323Y-95196115D01*
X112194323Y-95196115D02*
X112289561Y-95148496D01*
X112289561Y-95148496D02*
X112384800Y-95053258D01*
X112384800Y-95053258D02*
X112432419Y-94910401D01*
X112432419Y-94910401D02*
X112432419Y-94815163D01*
X112432419Y-94815163D02*
X112384800Y-94672306D01*
X112384800Y-94672306D02*
X112337180Y-94624687D01*
X112337180Y-94624687D02*
X112003847Y-94624687D01*
X112003847Y-94624687D02*
X112003847Y-94815163D01*
X112432419Y-94196115D02*
X111432419Y-94196115D01*
X111432419Y-94196115D02*
X112432419Y-93624687D01*
X112432419Y-93624687D02*
X111432419Y-93624687D01*
X112432419Y-93148496D02*
X111432419Y-93148496D01*
X111432419Y-93148496D02*
X111432419Y-92910401D01*
X111432419Y-92910401D02*
X111480038Y-92767544D01*
X111480038Y-92767544D02*
X111575276Y-92672306D01*
X111575276Y-92672306D02*
X111670514Y-92624687D01*
X111670514Y-92624687D02*
X111860990Y-92577068D01*
X111860990Y-92577068D02*
X112003847Y-92577068D01*
X112003847Y-92577068D02*
X112194323Y-92624687D01*
X112194323Y-92624687D02*
X112289561Y-92672306D01*
X112289561Y-92672306D02*
X112384800Y-92767544D01*
X112384800Y-92767544D02*
X112432419Y-92910401D01*
X112432419Y-92910401D02*
X112432419Y-93148496D01*
X147182419Y-120588972D02*
X148182419Y-120255639D01*
X148182419Y-120255639D02*
X147182419Y-119922306D01*
X147658609Y-119255639D02*
X147706228Y-119112782D01*
X147706228Y-119112782D02*
X147753847Y-119065163D01*
X147753847Y-119065163D02*
X147849085Y-119017544D01*
X147849085Y-119017544D02*
X147991942Y-119017544D01*
X147991942Y-119017544D02*
X148087180Y-119065163D01*
X148087180Y-119065163D02*
X148134800Y-119112782D01*
X148134800Y-119112782D02*
X148182419Y-119208020D01*
X148182419Y-119208020D02*
X148182419Y-119588972D01*
X148182419Y-119588972D02*
X147182419Y-119588972D01*
X147182419Y-119588972D02*
X147182419Y-119255639D01*
X147182419Y-119255639D02*
X147230038Y-119160401D01*
X147230038Y-119160401D02*
X147277657Y-119112782D01*
X147277657Y-119112782D02*
X147372895Y-119065163D01*
X147372895Y-119065163D02*
X147468133Y-119065163D01*
X147468133Y-119065163D02*
X147563371Y-119112782D01*
X147563371Y-119112782D02*
X147610990Y-119160401D01*
X147610990Y-119160401D02*
X147658609Y-119255639D01*
X147658609Y-119255639D02*
X147658609Y-119588972D01*
X147182419Y-118588972D02*
X147991942Y-118588972D01*
X147991942Y-118588972D02*
X148087180Y-118541353D01*
X148087180Y-118541353D02*
X148134800Y-118493734D01*
X148134800Y-118493734D02*
X148182419Y-118398496D01*
X148182419Y-118398496D02*
X148182419Y-118208020D01*
X148182419Y-118208020D02*
X148134800Y-118112782D01*
X148134800Y-118112782D02*
X148087180Y-118065163D01*
X148087180Y-118065163D02*
X147991942Y-118017544D01*
X147991942Y-118017544D02*
X147182419Y-118017544D01*
X148134800Y-117588972D02*
X148182419Y-117446115D01*
X148182419Y-117446115D02*
X148182419Y-117208020D01*
X148182419Y-117208020D02*
X148134800Y-117112782D01*
X148134800Y-117112782D02*
X148087180Y-117065163D01*
X148087180Y-117065163D02*
X147991942Y-117017544D01*
X147991942Y-117017544D02*
X147896704Y-117017544D01*
X147896704Y-117017544D02*
X147801466Y-117065163D01*
X147801466Y-117065163D02*
X147753847Y-117112782D01*
X147753847Y-117112782D02*
X147706228Y-117208020D01*
X147706228Y-117208020D02*
X147658609Y-117398496D01*
X147658609Y-117398496D02*
X147610990Y-117493734D01*
X147610990Y-117493734D02*
X147563371Y-117541353D01*
X147563371Y-117541353D02*
X147468133Y-117588972D01*
X147468133Y-117588972D02*
X147372895Y-117588972D01*
X147372895Y-117588972D02*
X147277657Y-117541353D01*
X147277657Y-117541353D02*
X147230038Y-117493734D01*
X147230038Y-117493734D02*
X147182419Y-117398496D01*
X147182419Y-117398496D02*
X147182419Y-117160401D01*
X147182419Y-117160401D02*
X147230038Y-117017544D01*
X137682419Y-120446115D02*
X136682419Y-120446115D01*
X136682419Y-119779449D02*
X136682419Y-119684211D01*
X136682419Y-119684211D02*
X136730038Y-119588973D01*
X136730038Y-119588973D02*
X136777657Y-119541354D01*
X136777657Y-119541354D02*
X136872895Y-119493735D01*
X136872895Y-119493735D02*
X137063371Y-119446116D01*
X137063371Y-119446116D02*
X137301466Y-119446116D01*
X137301466Y-119446116D02*
X137491942Y-119493735D01*
X137491942Y-119493735D02*
X137587180Y-119541354D01*
X137587180Y-119541354D02*
X137634800Y-119588973D01*
X137634800Y-119588973D02*
X137682419Y-119684211D01*
X137682419Y-119684211D02*
X137682419Y-119779449D01*
X137682419Y-119779449D02*
X137634800Y-119874687D01*
X137634800Y-119874687D02*
X137587180Y-119922306D01*
X137587180Y-119922306D02*
X137491942Y-119969925D01*
X137491942Y-119969925D02*
X137301466Y-120017544D01*
X137301466Y-120017544D02*
X137063371Y-120017544D01*
X137063371Y-120017544D02*
X136872895Y-119969925D01*
X136872895Y-119969925D02*
X136777657Y-119922306D01*
X136777657Y-119922306D02*
X136730038Y-119874687D01*
X136730038Y-119874687D02*
X136682419Y-119779449D01*
X136682419Y-119112782D02*
X136682419Y-118493735D01*
X136682419Y-118493735D02*
X137063371Y-118827068D01*
X137063371Y-118827068D02*
X137063371Y-118684211D01*
X137063371Y-118684211D02*
X137110990Y-118588973D01*
X137110990Y-118588973D02*
X137158609Y-118541354D01*
X137158609Y-118541354D02*
X137253847Y-118493735D01*
X137253847Y-118493735D02*
X137491942Y-118493735D01*
X137491942Y-118493735D02*
X137587180Y-118541354D01*
X137587180Y-118541354D02*
X137634800Y-118588973D01*
X137634800Y-118588973D02*
X137682419Y-118684211D01*
X137682419Y-118684211D02*
X137682419Y-118969925D01*
X137682419Y-118969925D02*
X137634800Y-119065163D01*
X137634800Y-119065163D02*
X137587180Y-119112782D01*
X136682419Y-117636592D02*
X136682419Y-117827068D01*
X136682419Y-117827068D02*
X136730038Y-117922306D01*
X136730038Y-117922306D02*
X136777657Y-117969925D01*
X136777657Y-117969925D02*
X136920514Y-118065163D01*
X136920514Y-118065163D02*
X137110990Y-118112782D01*
X137110990Y-118112782D02*
X137491942Y-118112782D01*
X137491942Y-118112782D02*
X137587180Y-118065163D01*
X137587180Y-118065163D02*
X137634800Y-118017544D01*
X137634800Y-118017544D02*
X137682419Y-117922306D01*
X137682419Y-117922306D02*
X137682419Y-117731830D01*
X137682419Y-117731830D02*
X137634800Y-117636592D01*
X137634800Y-117636592D02*
X137587180Y-117588973D01*
X137587180Y-117588973D02*
X137491942Y-117541354D01*
X137491942Y-117541354D02*
X137253847Y-117541354D01*
X137253847Y-117541354D02*
X137158609Y-117588973D01*
X137158609Y-117588973D02*
X137110990Y-117636592D01*
X137110990Y-117636592D02*
X137063371Y-117731830D01*
X137063371Y-117731830D02*
X137063371Y-117922306D01*
X137063371Y-117922306D02*
X137110990Y-118017544D01*
X137110990Y-118017544D02*
X137158609Y-118065163D01*
X137158609Y-118065163D02*
X137253847Y-118112782D01*
X127682419Y-120446115D02*
X126682419Y-120446115D01*
X126682419Y-119779449D02*
X126682419Y-119684211D01*
X126682419Y-119684211D02*
X126730038Y-119588973D01*
X126730038Y-119588973D02*
X126777657Y-119541354D01*
X126777657Y-119541354D02*
X126872895Y-119493735D01*
X126872895Y-119493735D02*
X127063371Y-119446116D01*
X127063371Y-119446116D02*
X127301466Y-119446116D01*
X127301466Y-119446116D02*
X127491942Y-119493735D01*
X127491942Y-119493735D02*
X127587180Y-119541354D01*
X127587180Y-119541354D02*
X127634800Y-119588973D01*
X127634800Y-119588973D02*
X127682419Y-119684211D01*
X127682419Y-119684211D02*
X127682419Y-119779449D01*
X127682419Y-119779449D02*
X127634800Y-119874687D01*
X127634800Y-119874687D02*
X127587180Y-119922306D01*
X127587180Y-119922306D02*
X127491942Y-119969925D01*
X127491942Y-119969925D02*
X127301466Y-120017544D01*
X127301466Y-120017544D02*
X127063371Y-120017544D01*
X127063371Y-120017544D02*
X126872895Y-119969925D01*
X126872895Y-119969925D02*
X126777657Y-119922306D01*
X126777657Y-119922306D02*
X126730038Y-119874687D01*
X126730038Y-119874687D02*
X126682419Y-119779449D01*
X127682419Y-118493735D02*
X127682419Y-119065163D01*
X127682419Y-118779449D02*
X126682419Y-118779449D01*
X126682419Y-118779449D02*
X126825276Y-118874687D01*
X126825276Y-118874687D02*
X126920514Y-118969925D01*
X126920514Y-118969925D02*
X126968133Y-119065163D01*
X127682419Y-118017544D02*
X127682419Y-117827068D01*
X127682419Y-117827068D02*
X127634800Y-117731830D01*
X127634800Y-117731830D02*
X127587180Y-117684211D01*
X127587180Y-117684211D02*
X127444323Y-117588973D01*
X127444323Y-117588973D02*
X127253847Y-117541354D01*
X127253847Y-117541354D02*
X126872895Y-117541354D01*
X126872895Y-117541354D02*
X126777657Y-117588973D01*
X126777657Y-117588973D02*
X126730038Y-117636592D01*
X126730038Y-117636592D02*
X126682419Y-117731830D01*
X126682419Y-117731830D02*
X126682419Y-117922306D01*
X126682419Y-117922306D02*
X126730038Y-118017544D01*
X126730038Y-118017544D02*
X126777657Y-118065163D01*
X126777657Y-118065163D02*
X126872895Y-118112782D01*
X126872895Y-118112782D02*
X127110990Y-118112782D01*
X127110990Y-118112782D02*
X127206228Y-118065163D01*
X127206228Y-118065163D02*
X127253847Y-118017544D01*
X127253847Y-118017544D02*
X127301466Y-117922306D01*
X127301466Y-117922306D02*
X127301466Y-117731830D01*
X127301466Y-117731830D02*
X127253847Y-117636592D01*
X127253847Y-117636592D02*
X127206228Y-117588973D01*
X127206228Y-117588973D02*
X127110990Y-117541354D01*
X109182419Y-120446115D02*
X109991942Y-120446115D01*
X109991942Y-120446115D02*
X110087180Y-120398496D01*
X110087180Y-120398496D02*
X110134800Y-120350877D01*
X110134800Y-120350877D02*
X110182419Y-120255639D01*
X110182419Y-120255639D02*
X110182419Y-120065163D01*
X110182419Y-120065163D02*
X110134800Y-119969925D01*
X110134800Y-119969925D02*
X110087180Y-119922306D01*
X110087180Y-119922306D02*
X109991942Y-119874687D01*
X109991942Y-119874687D02*
X109182419Y-119874687D01*
X109896704Y-119446115D02*
X109896704Y-118969925D01*
X110182419Y-119541353D02*
X109182419Y-119208020D01*
X109182419Y-119208020D02*
X110182419Y-118874687D01*
X110182419Y-117969925D02*
X109706228Y-118303258D01*
X110182419Y-118541353D02*
X109182419Y-118541353D01*
X109182419Y-118541353D02*
X109182419Y-118160401D01*
X109182419Y-118160401D02*
X109230038Y-118065163D01*
X109230038Y-118065163D02*
X109277657Y-118017544D01*
X109277657Y-118017544D02*
X109372895Y-117969925D01*
X109372895Y-117969925D02*
X109515752Y-117969925D01*
X109515752Y-117969925D02*
X109610990Y-118017544D01*
X109610990Y-118017544D02*
X109658609Y-118065163D01*
X109658609Y-118065163D02*
X109706228Y-118160401D01*
X109706228Y-118160401D02*
X109706228Y-118541353D01*
X109182419Y-117350877D02*
X109182419Y-117255639D01*
X109182419Y-117255639D02*
X109230038Y-117160401D01*
X109230038Y-117160401D02*
X109277657Y-117112782D01*
X109277657Y-117112782D02*
X109372895Y-117065163D01*
X109372895Y-117065163D02*
X109563371Y-117017544D01*
X109563371Y-117017544D02*
X109801466Y-117017544D01*
X109801466Y-117017544D02*
X109991942Y-117065163D01*
X109991942Y-117065163D02*
X110087180Y-117112782D01*
X110087180Y-117112782D02*
X110134800Y-117160401D01*
X110134800Y-117160401D02*
X110182419Y-117255639D01*
X110182419Y-117255639D02*
X110182419Y-117350877D01*
X110182419Y-117350877D02*
X110134800Y-117446115D01*
X110134800Y-117446115D02*
X110087180Y-117493734D01*
X110087180Y-117493734D02*
X109991942Y-117541353D01*
X109991942Y-117541353D02*
X109801466Y-117588972D01*
X109801466Y-117588972D02*
X109563371Y-117588972D01*
X109563371Y-117588972D02*
X109372895Y-117541353D01*
X109372895Y-117541353D02*
X109277657Y-117493734D01*
X109277657Y-117493734D02*
X109230038Y-117446115D01*
X109230038Y-117446115D02*
X109182419Y-117350877D01*
X110277657Y-116827068D02*
X110277657Y-116065163D01*
X109182419Y-115969924D02*
X109182419Y-115398496D01*
X110182419Y-115684210D02*
X109182419Y-115684210D01*
X109182419Y-115160400D02*
X110182419Y-114493734D01*
X109182419Y-114493734D02*
X110182419Y-115160400D01*
X145682419Y-95446115D02*
X144682419Y-95446115D01*
X144682419Y-94779449D02*
X144682419Y-94684211D01*
X144682419Y-94684211D02*
X144730038Y-94588973D01*
X144730038Y-94588973D02*
X144777657Y-94541354D01*
X144777657Y-94541354D02*
X144872895Y-94493735D01*
X144872895Y-94493735D02*
X145063371Y-94446116D01*
X145063371Y-94446116D02*
X145301466Y-94446116D01*
X145301466Y-94446116D02*
X145491942Y-94493735D01*
X145491942Y-94493735D02*
X145587180Y-94541354D01*
X145587180Y-94541354D02*
X145634800Y-94588973D01*
X145634800Y-94588973D02*
X145682419Y-94684211D01*
X145682419Y-94684211D02*
X145682419Y-94779449D01*
X145682419Y-94779449D02*
X145634800Y-94874687D01*
X145634800Y-94874687D02*
X145587180Y-94922306D01*
X145587180Y-94922306D02*
X145491942Y-94969925D01*
X145491942Y-94969925D02*
X145301466Y-95017544D01*
X145301466Y-95017544D02*
X145063371Y-95017544D01*
X145063371Y-95017544D02*
X144872895Y-94969925D01*
X144872895Y-94969925D02*
X144777657Y-94922306D01*
X144777657Y-94922306D02*
X144730038Y-94874687D01*
X144730038Y-94874687D02*
X144682419Y-94779449D01*
X145682419Y-93493735D02*
X145682419Y-94065163D01*
X145682419Y-93779449D02*
X144682419Y-93779449D01*
X144682419Y-93779449D02*
X144825276Y-93874687D01*
X144825276Y-93874687D02*
X144920514Y-93969925D01*
X144920514Y-93969925D02*
X144968133Y-94065163D01*
X144777657Y-93112782D02*
X144730038Y-93065163D01*
X144730038Y-93065163D02*
X144682419Y-92969925D01*
X144682419Y-92969925D02*
X144682419Y-92731830D01*
X144682419Y-92731830D02*
X144730038Y-92636592D01*
X144730038Y-92636592D02*
X144777657Y-92588973D01*
X144777657Y-92588973D02*
X144872895Y-92541354D01*
X144872895Y-92541354D02*
X144968133Y-92541354D01*
X144968133Y-92541354D02*
X145110990Y-92588973D01*
X145110990Y-92588973D02*
X145682419Y-93160401D01*
X145682419Y-93160401D02*
X145682419Y-92541354D01*
X125182419Y-95446115D02*
X124182419Y-95446115D01*
X124182419Y-94779449D02*
X124182419Y-94684211D01*
X124182419Y-94684211D02*
X124230038Y-94588973D01*
X124230038Y-94588973D02*
X124277657Y-94541354D01*
X124277657Y-94541354D02*
X124372895Y-94493735D01*
X124372895Y-94493735D02*
X124563371Y-94446116D01*
X124563371Y-94446116D02*
X124801466Y-94446116D01*
X124801466Y-94446116D02*
X124991942Y-94493735D01*
X124991942Y-94493735D02*
X125087180Y-94541354D01*
X125087180Y-94541354D02*
X125134800Y-94588973D01*
X125134800Y-94588973D02*
X125182419Y-94684211D01*
X125182419Y-94684211D02*
X125182419Y-94779449D01*
X125182419Y-94779449D02*
X125134800Y-94874687D01*
X125134800Y-94874687D02*
X125087180Y-94922306D01*
X125087180Y-94922306D02*
X124991942Y-94969925D01*
X124991942Y-94969925D02*
X124801466Y-95017544D01*
X124801466Y-95017544D02*
X124563371Y-95017544D01*
X124563371Y-95017544D02*
X124372895Y-94969925D01*
X124372895Y-94969925D02*
X124277657Y-94922306D01*
X124277657Y-94922306D02*
X124230038Y-94874687D01*
X124230038Y-94874687D02*
X124182419Y-94779449D01*
X124277657Y-94065163D02*
X124230038Y-94017544D01*
X124230038Y-94017544D02*
X124182419Y-93922306D01*
X124182419Y-93922306D02*
X124182419Y-93684211D01*
X124182419Y-93684211D02*
X124230038Y-93588973D01*
X124230038Y-93588973D02*
X124277657Y-93541354D01*
X124277657Y-93541354D02*
X124372895Y-93493735D01*
X124372895Y-93493735D02*
X124468133Y-93493735D01*
X124468133Y-93493735D02*
X124610990Y-93541354D01*
X124610990Y-93541354D02*
X125182419Y-94112782D01*
X125182419Y-94112782D02*
X125182419Y-93493735D01*
X124182419Y-92588973D02*
X124182419Y-93065163D01*
X124182419Y-93065163D02*
X124658609Y-93112782D01*
X124658609Y-93112782D02*
X124610990Y-93065163D01*
X124610990Y-93065163D02*
X124563371Y-92969925D01*
X124563371Y-92969925D02*
X124563371Y-92731830D01*
X124563371Y-92731830D02*
X124610990Y-92636592D01*
X124610990Y-92636592D02*
X124658609Y-92588973D01*
X124658609Y-92588973D02*
X124753847Y-92541354D01*
X124753847Y-92541354D02*
X124991942Y-92541354D01*
X124991942Y-92541354D02*
X125087180Y-92588973D01*
X125087180Y-92588973D02*
X125134800Y-92636592D01*
X125134800Y-92636592D02*
X125182419Y-92731830D01*
X125182419Y-92731830D02*
X125182419Y-92969925D01*
X125182419Y-92969925D02*
X125134800Y-93065163D01*
X125134800Y-93065163D02*
X125087180Y-93112782D01*
X122682419Y-95446115D02*
X121682419Y-95446115D01*
X121682419Y-94779449D02*
X121682419Y-94684211D01*
X121682419Y-94684211D02*
X121730038Y-94588973D01*
X121730038Y-94588973D02*
X121777657Y-94541354D01*
X121777657Y-94541354D02*
X121872895Y-94493735D01*
X121872895Y-94493735D02*
X122063371Y-94446116D01*
X122063371Y-94446116D02*
X122301466Y-94446116D01*
X122301466Y-94446116D02*
X122491942Y-94493735D01*
X122491942Y-94493735D02*
X122587180Y-94541354D01*
X122587180Y-94541354D02*
X122634800Y-94588973D01*
X122634800Y-94588973D02*
X122682419Y-94684211D01*
X122682419Y-94684211D02*
X122682419Y-94779449D01*
X122682419Y-94779449D02*
X122634800Y-94874687D01*
X122634800Y-94874687D02*
X122587180Y-94922306D01*
X122587180Y-94922306D02*
X122491942Y-94969925D01*
X122491942Y-94969925D02*
X122301466Y-95017544D01*
X122301466Y-95017544D02*
X122063371Y-95017544D01*
X122063371Y-95017544D02*
X121872895Y-94969925D01*
X121872895Y-94969925D02*
X121777657Y-94922306D01*
X121777657Y-94922306D02*
X121730038Y-94874687D01*
X121730038Y-94874687D02*
X121682419Y-94779449D01*
X121682419Y-94112782D02*
X121682419Y-93493735D01*
X121682419Y-93493735D02*
X122063371Y-93827068D01*
X122063371Y-93827068D02*
X122063371Y-93684211D01*
X122063371Y-93684211D02*
X122110990Y-93588973D01*
X122110990Y-93588973D02*
X122158609Y-93541354D01*
X122158609Y-93541354D02*
X122253847Y-93493735D01*
X122253847Y-93493735D02*
X122491942Y-93493735D01*
X122491942Y-93493735D02*
X122587180Y-93541354D01*
X122587180Y-93541354D02*
X122634800Y-93588973D01*
X122634800Y-93588973D02*
X122682419Y-93684211D01*
X122682419Y-93684211D02*
X122682419Y-93969925D01*
X122682419Y-93969925D02*
X122634800Y-94065163D01*
X122634800Y-94065163D02*
X122587180Y-94112782D01*
X121682419Y-92588973D02*
X121682419Y-93065163D01*
X121682419Y-93065163D02*
X122158609Y-93112782D01*
X122158609Y-93112782D02*
X122110990Y-93065163D01*
X122110990Y-93065163D02*
X122063371Y-92969925D01*
X122063371Y-92969925D02*
X122063371Y-92731830D01*
X122063371Y-92731830D02*
X122110990Y-92636592D01*
X122110990Y-92636592D02*
X122158609Y-92588973D01*
X122158609Y-92588973D02*
X122253847Y-92541354D01*
X122253847Y-92541354D02*
X122491942Y-92541354D01*
X122491942Y-92541354D02*
X122587180Y-92588973D01*
X122587180Y-92588973D02*
X122634800Y-92636592D01*
X122634800Y-92636592D02*
X122682419Y-92731830D01*
X122682419Y-92731830D02*
X122682419Y-92969925D01*
X122682419Y-92969925D02*
X122634800Y-93065163D01*
X122634800Y-93065163D02*
X122587180Y-93112782D01*
X122682419Y-120446115D02*
X121682419Y-120446115D01*
X121682419Y-119779449D02*
X121682419Y-119684211D01*
X121682419Y-119684211D02*
X121730038Y-119588973D01*
X121730038Y-119588973D02*
X121777657Y-119541354D01*
X121777657Y-119541354D02*
X121872895Y-119493735D01*
X121872895Y-119493735D02*
X122063371Y-119446116D01*
X122063371Y-119446116D02*
X122301466Y-119446116D01*
X122301466Y-119446116D02*
X122491942Y-119493735D01*
X122491942Y-119493735D02*
X122587180Y-119541354D01*
X122587180Y-119541354D02*
X122634800Y-119588973D01*
X122634800Y-119588973D02*
X122682419Y-119684211D01*
X122682419Y-119684211D02*
X122682419Y-119779449D01*
X122682419Y-119779449D02*
X122634800Y-119874687D01*
X122634800Y-119874687D02*
X122587180Y-119922306D01*
X122587180Y-119922306D02*
X122491942Y-119969925D01*
X122491942Y-119969925D02*
X122301466Y-120017544D01*
X122301466Y-120017544D02*
X122063371Y-120017544D01*
X122063371Y-120017544D02*
X121872895Y-119969925D01*
X121872895Y-119969925D02*
X121777657Y-119922306D01*
X121777657Y-119922306D02*
X121730038Y-119874687D01*
X121730038Y-119874687D02*
X121682419Y-119779449D01*
X121777657Y-119065163D02*
X121730038Y-119017544D01*
X121730038Y-119017544D02*
X121682419Y-118922306D01*
X121682419Y-118922306D02*
X121682419Y-118684211D01*
X121682419Y-118684211D02*
X121730038Y-118588973D01*
X121730038Y-118588973D02*
X121777657Y-118541354D01*
X121777657Y-118541354D02*
X121872895Y-118493735D01*
X121872895Y-118493735D02*
X121968133Y-118493735D01*
X121968133Y-118493735D02*
X122110990Y-118541354D01*
X122110990Y-118541354D02*
X122682419Y-119112782D01*
X122682419Y-119112782D02*
X122682419Y-118493735D01*
X122682419Y-117541354D02*
X122682419Y-118112782D01*
X122682419Y-117827068D02*
X121682419Y-117827068D01*
X121682419Y-117827068D02*
X121825276Y-117922306D01*
X121825276Y-117922306D02*
X121920514Y-118017544D01*
X121920514Y-118017544D02*
X121968133Y-118112782D01*
X143082419Y-95446115D02*
X142082419Y-95446115D01*
X142082419Y-94779449D02*
X142082419Y-94684211D01*
X142082419Y-94684211D02*
X142130038Y-94588973D01*
X142130038Y-94588973D02*
X142177657Y-94541354D01*
X142177657Y-94541354D02*
X142272895Y-94493735D01*
X142272895Y-94493735D02*
X142463371Y-94446116D01*
X142463371Y-94446116D02*
X142701466Y-94446116D01*
X142701466Y-94446116D02*
X142891942Y-94493735D01*
X142891942Y-94493735D02*
X142987180Y-94541354D01*
X142987180Y-94541354D02*
X143034800Y-94588973D01*
X143034800Y-94588973D02*
X143082419Y-94684211D01*
X143082419Y-94684211D02*
X143082419Y-94779449D01*
X143082419Y-94779449D02*
X143034800Y-94874687D01*
X143034800Y-94874687D02*
X142987180Y-94922306D01*
X142987180Y-94922306D02*
X142891942Y-94969925D01*
X142891942Y-94969925D02*
X142701466Y-95017544D01*
X142701466Y-95017544D02*
X142463371Y-95017544D01*
X142463371Y-95017544D02*
X142272895Y-94969925D01*
X142272895Y-94969925D02*
X142177657Y-94922306D01*
X142177657Y-94922306D02*
X142130038Y-94874687D01*
X142130038Y-94874687D02*
X142082419Y-94779449D01*
X143082419Y-93493735D02*
X143082419Y-94065163D01*
X143082419Y-93779449D02*
X142082419Y-93779449D01*
X142082419Y-93779449D02*
X142225276Y-93874687D01*
X142225276Y-93874687D02*
X142320514Y-93969925D01*
X142320514Y-93969925D02*
X142368133Y-94065163D01*
X142082419Y-93160401D02*
X142082419Y-92541354D01*
X142082419Y-92541354D02*
X142463371Y-92874687D01*
X142463371Y-92874687D02*
X142463371Y-92731830D01*
X142463371Y-92731830D02*
X142510990Y-92636592D01*
X142510990Y-92636592D02*
X142558609Y-92588973D01*
X142558609Y-92588973D02*
X142653847Y-92541354D01*
X142653847Y-92541354D02*
X142891942Y-92541354D01*
X142891942Y-92541354D02*
X142987180Y-92588973D01*
X142987180Y-92588973D02*
X143034800Y-92636592D01*
X143034800Y-92636592D02*
X143082419Y-92731830D01*
X143082419Y-92731830D02*
X143082419Y-93017544D01*
X143082419Y-93017544D02*
X143034800Y-93112782D01*
X143034800Y-93112782D02*
X142987180Y-93160401D01*
X137682419Y-95446115D02*
X136682419Y-95446115D01*
X136682419Y-94779449D02*
X136682419Y-94684211D01*
X136682419Y-94684211D02*
X136730038Y-94588973D01*
X136730038Y-94588973D02*
X136777657Y-94541354D01*
X136777657Y-94541354D02*
X136872895Y-94493735D01*
X136872895Y-94493735D02*
X137063371Y-94446116D01*
X137063371Y-94446116D02*
X137301466Y-94446116D01*
X137301466Y-94446116D02*
X137491942Y-94493735D01*
X137491942Y-94493735D02*
X137587180Y-94541354D01*
X137587180Y-94541354D02*
X137634800Y-94588973D01*
X137634800Y-94588973D02*
X137682419Y-94684211D01*
X137682419Y-94684211D02*
X137682419Y-94779449D01*
X137682419Y-94779449D02*
X137634800Y-94874687D01*
X137634800Y-94874687D02*
X137587180Y-94922306D01*
X137587180Y-94922306D02*
X137491942Y-94969925D01*
X137491942Y-94969925D02*
X137301466Y-95017544D01*
X137301466Y-95017544D02*
X137063371Y-95017544D01*
X137063371Y-95017544D02*
X136872895Y-94969925D01*
X136872895Y-94969925D02*
X136777657Y-94922306D01*
X136777657Y-94922306D02*
X136730038Y-94874687D01*
X136730038Y-94874687D02*
X136682419Y-94779449D01*
X137682419Y-93493735D02*
X137682419Y-94065163D01*
X137682419Y-93779449D02*
X136682419Y-93779449D01*
X136682419Y-93779449D02*
X136825276Y-93874687D01*
X136825276Y-93874687D02*
X136920514Y-93969925D01*
X136920514Y-93969925D02*
X136968133Y-94065163D01*
X136682419Y-92588973D02*
X136682419Y-93065163D01*
X136682419Y-93065163D02*
X137158609Y-93112782D01*
X137158609Y-93112782D02*
X137110990Y-93065163D01*
X137110990Y-93065163D02*
X137063371Y-92969925D01*
X137063371Y-92969925D02*
X137063371Y-92731830D01*
X137063371Y-92731830D02*
X137110990Y-92636592D01*
X137110990Y-92636592D02*
X137158609Y-92588973D01*
X137158609Y-92588973D02*
X137253847Y-92541354D01*
X137253847Y-92541354D02*
X137491942Y-92541354D01*
X137491942Y-92541354D02*
X137587180Y-92588973D01*
X137587180Y-92588973D02*
X137634800Y-92636592D01*
X137634800Y-92636592D02*
X137682419Y-92731830D01*
X137682419Y-92731830D02*
X137682419Y-92969925D01*
X137682419Y-92969925D02*
X137634800Y-93065163D01*
X137634800Y-93065163D02*
X137587180Y-93112782D01*
X117682419Y-95446115D02*
X116682419Y-95446115D01*
X116682419Y-94779449D02*
X116682419Y-94684211D01*
X116682419Y-94684211D02*
X116730038Y-94588973D01*
X116730038Y-94588973D02*
X116777657Y-94541354D01*
X116777657Y-94541354D02*
X116872895Y-94493735D01*
X116872895Y-94493735D02*
X117063371Y-94446116D01*
X117063371Y-94446116D02*
X117301466Y-94446116D01*
X117301466Y-94446116D02*
X117491942Y-94493735D01*
X117491942Y-94493735D02*
X117587180Y-94541354D01*
X117587180Y-94541354D02*
X117634800Y-94588973D01*
X117634800Y-94588973D02*
X117682419Y-94684211D01*
X117682419Y-94684211D02*
X117682419Y-94779449D01*
X117682419Y-94779449D02*
X117634800Y-94874687D01*
X117634800Y-94874687D02*
X117587180Y-94922306D01*
X117587180Y-94922306D02*
X117491942Y-94969925D01*
X117491942Y-94969925D02*
X117301466Y-95017544D01*
X117301466Y-95017544D02*
X117063371Y-95017544D01*
X117063371Y-95017544D02*
X116872895Y-94969925D01*
X116872895Y-94969925D02*
X116777657Y-94922306D01*
X116777657Y-94922306D02*
X116730038Y-94874687D01*
X116730038Y-94874687D02*
X116682419Y-94779449D01*
X116682419Y-94112782D02*
X116682419Y-93493735D01*
X116682419Y-93493735D02*
X117063371Y-93827068D01*
X117063371Y-93827068D02*
X117063371Y-93684211D01*
X117063371Y-93684211D02*
X117110990Y-93588973D01*
X117110990Y-93588973D02*
X117158609Y-93541354D01*
X117158609Y-93541354D02*
X117253847Y-93493735D01*
X117253847Y-93493735D02*
X117491942Y-93493735D01*
X117491942Y-93493735D02*
X117587180Y-93541354D01*
X117587180Y-93541354D02*
X117634800Y-93588973D01*
X117634800Y-93588973D02*
X117682419Y-93684211D01*
X117682419Y-93684211D02*
X117682419Y-93969925D01*
X117682419Y-93969925D02*
X117634800Y-94065163D01*
X117634800Y-94065163D02*
X117587180Y-94112782D01*
X116682419Y-93160401D02*
X116682419Y-92541354D01*
X116682419Y-92541354D02*
X117063371Y-92874687D01*
X117063371Y-92874687D02*
X117063371Y-92731830D01*
X117063371Y-92731830D02*
X117110990Y-92636592D01*
X117110990Y-92636592D02*
X117158609Y-92588973D01*
X117158609Y-92588973D02*
X117253847Y-92541354D01*
X117253847Y-92541354D02*
X117491942Y-92541354D01*
X117491942Y-92541354D02*
X117587180Y-92588973D01*
X117587180Y-92588973D02*
X117634800Y-92636592D01*
X117634800Y-92636592D02*
X117682419Y-92731830D01*
X117682419Y-92731830D02*
X117682419Y-93017544D01*
X117682419Y-93017544D02*
X117634800Y-93112782D01*
X117634800Y-93112782D02*
X117587180Y-93160401D01*
X116730038Y-119922306D02*
X116682419Y-120017544D01*
X116682419Y-120017544D02*
X116682419Y-120160401D01*
X116682419Y-120160401D02*
X116730038Y-120303258D01*
X116730038Y-120303258D02*
X116825276Y-120398496D01*
X116825276Y-120398496D02*
X116920514Y-120446115D01*
X116920514Y-120446115D02*
X117110990Y-120493734D01*
X117110990Y-120493734D02*
X117253847Y-120493734D01*
X117253847Y-120493734D02*
X117444323Y-120446115D01*
X117444323Y-120446115D02*
X117539561Y-120398496D01*
X117539561Y-120398496D02*
X117634800Y-120303258D01*
X117634800Y-120303258D02*
X117682419Y-120160401D01*
X117682419Y-120160401D02*
X117682419Y-120065163D01*
X117682419Y-120065163D02*
X117634800Y-119922306D01*
X117634800Y-119922306D02*
X117587180Y-119874687D01*
X117587180Y-119874687D02*
X117253847Y-119874687D01*
X117253847Y-119874687D02*
X117253847Y-120065163D01*
X117682419Y-119446115D02*
X116682419Y-119446115D01*
X116682419Y-119446115D02*
X117682419Y-118874687D01*
X117682419Y-118874687D02*
X116682419Y-118874687D01*
X117682419Y-118398496D02*
X116682419Y-118398496D01*
X116682419Y-118398496D02*
X116682419Y-118160401D01*
X116682419Y-118160401D02*
X116730038Y-118017544D01*
X116730038Y-118017544D02*
X116825276Y-117922306D01*
X116825276Y-117922306D02*
X116920514Y-117874687D01*
X116920514Y-117874687D02*
X117110990Y-117827068D01*
X117110990Y-117827068D02*
X117253847Y-117827068D01*
X117253847Y-117827068D02*
X117444323Y-117874687D01*
X117444323Y-117874687D02*
X117539561Y-117922306D01*
X117539561Y-117922306D02*
X117634800Y-118017544D01*
X117634800Y-118017544D02*
X117682419Y-118160401D01*
X117682419Y-118160401D02*
X117682419Y-118398496D01*
X147182419Y-96588972D02*
X148182419Y-96255639D01*
X148182419Y-96255639D02*
X147182419Y-95922306D01*
X148277657Y-95827068D02*
X148277657Y-95065163D01*
X147658609Y-94493734D02*
X147706228Y-94350877D01*
X147706228Y-94350877D02*
X147753847Y-94303258D01*
X147753847Y-94303258D02*
X147849085Y-94255639D01*
X147849085Y-94255639D02*
X147991942Y-94255639D01*
X147991942Y-94255639D02*
X148087180Y-94303258D01*
X148087180Y-94303258D02*
X148134800Y-94350877D01*
X148134800Y-94350877D02*
X148182419Y-94446115D01*
X148182419Y-94446115D02*
X148182419Y-94827067D01*
X148182419Y-94827067D02*
X147182419Y-94827067D01*
X147182419Y-94827067D02*
X147182419Y-94493734D01*
X147182419Y-94493734D02*
X147230038Y-94398496D01*
X147230038Y-94398496D02*
X147277657Y-94350877D01*
X147277657Y-94350877D02*
X147372895Y-94303258D01*
X147372895Y-94303258D02*
X147468133Y-94303258D01*
X147468133Y-94303258D02*
X147563371Y-94350877D01*
X147563371Y-94350877D02*
X147610990Y-94398496D01*
X147610990Y-94398496D02*
X147658609Y-94493734D01*
X147658609Y-94493734D02*
X147658609Y-94827067D01*
X147896704Y-93874686D02*
X147896704Y-93398496D01*
X148182419Y-93969924D02*
X147182419Y-93636591D01*
X147182419Y-93636591D02*
X148182419Y-93303258D01*
X147182419Y-93112781D02*
X147182419Y-92541353D01*
X148182419Y-92827067D02*
X147182419Y-92827067D01*
X140182419Y-120446115D02*
X139182419Y-120446115D01*
X139182419Y-119779449D02*
X139182419Y-119684211D01*
X139182419Y-119684211D02*
X139230038Y-119588973D01*
X139230038Y-119588973D02*
X139277657Y-119541354D01*
X139277657Y-119541354D02*
X139372895Y-119493735D01*
X139372895Y-119493735D02*
X139563371Y-119446116D01*
X139563371Y-119446116D02*
X139801466Y-119446116D01*
X139801466Y-119446116D02*
X139991942Y-119493735D01*
X139991942Y-119493735D02*
X140087180Y-119541354D01*
X140087180Y-119541354D02*
X140134800Y-119588973D01*
X140134800Y-119588973D02*
X140182419Y-119684211D01*
X140182419Y-119684211D02*
X140182419Y-119779449D01*
X140182419Y-119779449D02*
X140134800Y-119874687D01*
X140134800Y-119874687D02*
X140087180Y-119922306D01*
X140087180Y-119922306D02*
X139991942Y-119969925D01*
X139991942Y-119969925D02*
X139801466Y-120017544D01*
X139801466Y-120017544D02*
X139563371Y-120017544D01*
X139563371Y-120017544D02*
X139372895Y-119969925D01*
X139372895Y-119969925D02*
X139277657Y-119922306D01*
X139277657Y-119922306D02*
X139230038Y-119874687D01*
X139230038Y-119874687D02*
X139182419Y-119779449D01*
X139182419Y-118827068D02*
X139182419Y-118731830D01*
X139182419Y-118731830D02*
X139230038Y-118636592D01*
X139230038Y-118636592D02*
X139277657Y-118588973D01*
X139277657Y-118588973D02*
X139372895Y-118541354D01*
X139372895Y-118541354D02*
X139563371Y-118493735D01*
X139563371Y-118493735D02*
X139801466Y-118493735D01*
X139801466Y-118493735D02*
X139991942Y-118541354D01*
X139991942Y-118541354D02*
X140087180Y-118588973D01*
X140087180Y-118588973D02*
X140134800Y-118636592D01*
X140134800Y-118636592D02*
X140182419Y-118731830D01*
X140182419Y-118731830D02*
X140182419Y-118827068D01*
X140182419Y-118827068D02*
X140134800Y-118922306D01*
X140134800Y-118922306D02*
X140087180Y-118969925D01*
X140087180Y-118969925D02*
X139991942Y-119017544D01*
X139991942Y-119017544D02*
X139801466Y-119065163D01*
X139801466Y-119065163D02*
X139563371Y-119065163D01*
X139563371Y-119065163D02*
X139372895Y-119017544D01*
X139372895Y-119017544D02*
X139277657Y-118969925D01*
X139277657Y-118969925D02*
X139230038Y-118922306D01*
X139230038Y-118922306D02*
X139182419Y-118827068D01*
X120182419Y-120446115D02*
X119182419Y-120446115D01*
X119182419Y-119779449D02*
X119182419Y-119684211D01*
X119182419Y-119684211D02*
X119230038Y-119588973D01*
X119230038Y-119588973D02*
X119277657Y-119541354D01*
X119277657Y-119541354D02*
X119372895Y-119493735D01*
X119372895Y-119493735D02*
X119563371Y-119446116D01*
X119563371Y-119446116D02*
X119801466Y-119446116D01*
X119801466Y-119446116D02*
X119991942Y-119493735D01*
X119991942Y-119493735D02*
X120087180Y-119541354D01*
X120087180Y-119541354D02*
X120134800Y-119588973D01*
X120134800Y-119588973D02*
X120182419Y-119684211D01*
X120182419Y-119684211D02*
X120182419Y-119779449D01*
X120182419Y-119779449D02*
X120134800Y-119874687D01*
X120134800Y-119874687D02*
X120087180Y-119922306D01*
X120087180Y-119922306D02*
X119991942Y-119969925D01*
X119991942Y-119969925D02*
X119801466Y-120017544D01*
X119801466Y-120017544D02*
X119563371Y-120017544D01*
X119563371Y-120017544D02*
X119372895Y-119969925D01*
X119372895Y-119969925D02*
X119277657Y-119922306D01*
X119277657Y-119922306D02*
X119230038Y-119874687D01*
X119230038Y-119874687D02*
X119182419Y-119779449D01*
X119277657Y-119065163D02*
X119230038Y-119017544D01*
X119230038Y-119017544D02*
X119182419Y-118922306D01*
X119182419Y-118922306D02*
X119182419Y-118684211D01*
X119182419Y-118684211D02*
X119230038Y-118588973D01*
X119230038Y-118588973D02*
X119277657Y-118541354D01*
X119277657Y-118541354D02*
X119372895Y-118493735D01*
X119372895Y-118493735D02*
X119468133Y-118493735D01*
X119468133Y-118493735D02*
X119610990Y-118541354D01*
X119610990Y-118541354D02*
X120182419Y-119112782D01*
X120182419Y-119112782D02*
X120182419Y-118493735D01*
X119277657Y-118112782D02*
X119230038Y-118065163D01*
X119230038Y-118065163D02*
X119182419Y-117969925D01*
X119182419Y-117969925D02*
X119182419Y-117731830D01*
X119182419Y-117731830D02*
X119230038Y-117636592D01*
X119230038Y-117636592D02*
X119277657Y-117588973D01*
X119277657Y-117588973D02*
X119372895Y-117541354D01*
X119372895Y-117541354D02*
X119468133Y-117541354D01*
X119468133Y-117541354D02*
X119610990Y-117588973D01*
X119610990Y-117588973D02*
X120182419Y-118160401D01*
X120182419Y-118160401D02*
X120182419Y-117541354D01*
X111682419Y-120446115D02*
X112491942Y-120446115D01*
X112491942Y-120446115D02*
X112587180Y-120398496D01*
X112587180Y-120398496D02*
X112634800Y-120350877D01*
X112634800Y-120350877D02*
X112682419Y-120255639D01*
X112682419Y-120255639D02*
X112682419Y-120065163D01*
X112682419Y-120065163D02*
X112634800Y-119969925D01*
X112634800Y-119969925D02*
X112587180Y-119922306D01*
X112587180Y-119922306D02*
X112491942Y-119874687D01*
X112491942Y-119874687D02*
X111682419Y-119874687D01*
X112396704Y-119446115D02*
X112396704Y-118969925D01*
X112682419Y-119541353D02*
X111682419Y-119208020D01*
X111682419Y-119208020D02*
X112682419Y-118874687D01*
X112682419Y-117969925D02*
X112206228Y-118303258D01*
X112682419Y-118541353D02*
X111682419Y-118541353D01*
X111682419Y-118541353D02*
X111682419Y-118160401D01*
X111682419Y-118160401D02*
X111730038Y-118065163D01*
X111730038Y-118065163D02*
X111777657Y-118017544D01*
X111777657Y-118017544D02*
X111872895Y-117969925D01*
X111872895Y-117969925D02*
X112015752Y-117969925D01*
X112015752Y-117969925D02*
X112110990Y-118017544D01*
X112110990Y-118017544D02*
X112158609Y-118065163D01*
X112158609Y-118065163D02*
X112206228Y-118160401D01*
X112206228Y-118160401D02*
X112206228Y-118541353D01*
X111682419Y-117350877D02*
X111682419Y-117160401D01*
X111682419Y-117160401D02*
X111730038Y-117065163D01*
X111730038Y-117065163D02*
X111825276Y-116969925D01*
X111825276Y-116969925D02*
X112015752Y-116922306D01*
X112015752Y-116922306D02*
X112349085Y-116922306D01*
X112349085Y-116922306D02*
X112539561Y-116969925D01*
X112539561Y-116969925D02*
X112634800Y-117065163D01*
X112634800Y-117065163D02*
X112682419Y-117160401D01*
X112682419Y-117160401D02*
X112682419Y-117350877D01*
X112682419Y-117350877D02*
X112634800Y-117446115D01*
X112634800Y-117446115D02*
X112539561Y-117541353D01*
X112539561Y-117541353D02*
X112349085Y-117588972D01*
X112349085Y-117588972D02*
X112015752Y-117588972D01*
X112015752Y-117588972D02*
X111825276Y-117541353D01*
X111825276Y-117541353D02*
X111730038Y-117446115D01*
X111730038Y-117446115D02*
X111682419Y-117350877D01*
X112777657Y-116731830D02*
X112777657Y-115969925D01*
X112682419Y-115160401D02*
X112206228Y-115493734D01*
X112682419Y-115731829D02*
X111682419Y-115731829D01*
X111682419Y-115731829D02*
X111682419Y-115350877D01*
X111682419Y-115350877D02*
X111730038Y-115255639D01*
X111730038Y-115255639D02*
X111777657Y-115208020D01*
X111777657Y-115208020D02*
X111872895Y-115160401D01*
X111872895Y-115160401D02*
X112015752Y-115160401D01*
X112015752Y-115160401D02*
X112110990Y-115208020D01*
X112110990Y-115208020D02*
X112158609Y-115255639D01*
X112158609Y-115255639D02*
X112206228Y-115350877D01*
X112206228Y-115350877D02*
X112206228Y-115731829D01*
X111682419Y-114827067D02*
X112682419Y-114160401D01*
X111682419Y-114160401D02*
X112682419Y-114827067D01*
X127682419Y-95446115D02*
X126682419Y-95446115D01*
X126682419Y-94779449D02*
X126682419Y-94684211D01*
X126682419Y-94684211D02*
X126730038Y-94588973D01*
X126730038Y-94588973D02*
X126777657Y-94541354D01*
X126777657Y-94541354D02*
X126872895Y-94493735D01*
X126872895Y-94493735D02*
X127063371Y-94446116D01*
X127063371Y-94446116D02*
X127301466Y-94446116D01*
X127301466Y-94446116D02*
X127491942Y-94493735D01*
X127491942Y-94493735D02*
X127587180Y-94541354D01*
X127587180Y-94541354D02*
X127634800Y-94588973D01*
X127634800Y-94588973D02*
X127682419Y-94684211D01*
X127682419Y-94684211D02*
X127682419Y-94779449D01*
X127682419Y-94779449D02*
X127634800Y-94874687D01*
X127634800Y-94874687D02*
X127587180Y-94922306D01*
X127587180Y-94922306D02*
X127491942Y-94969925D01*
X127491942Y-94969925D02*
X127301466Y-95017544D01*
X127301466Y-95017544D02*
X127063371Y-95017544D01*
X127063371Y-95017544D02*
X126872895Y-94969925D01*
X126872895Y-94969925D02*
X126777657Y-94922306D01*
X126777657Y-94922306D02*
X126730038Y-94874687D01*
X126730038Y-94874687D02*
X126682419Y-94779449D01*
X126777657Y-94065163D02*
X126730038Y-94017544D01*
X126730038Y-94017544D02*
X126682419Y-93922306D01*
X126682419Y-93922306D02*
X126682419Y-93684211D01*
X126682419Y-93684211D02*
X126730038Y-93588973D01*
X126730038Y-93588973D02*
X126777657Y-93541354D01*
X126777657Y-93541354D02*
X126872895Y-93493735D01*
X126872895Y-93493735D02*
X126968133Y-93493735D01*
X126968133Y-93493735D02*
X127110990Y-93541354D01*
X127110990Y-93541354D02*
X127682419Y-94112782D01*
X127682419Y-94112782D02*
X127682419Y-93493735D01*
X126682419Y-92636592D02*
X126682419Y-92827068D01*
X126682419Y-92827068D02*
X126730038Y-92922306D01*
X126730038Y-92922306D02*
X126777657Y-92969925D01*
X126777657Y-92969925D02*
X126920514Y-93065163D01*
X126920514Y-93065163D02*
X127110990Y-93112782D01*
X127110990Y-93112782D02*
X127491942Y-93112782D01*
X127491942Y-93112782D02*
X127587180Y-93065163D01*
X127587180Y-93065163D02*
X127634800Y-93017544D01*
X127634800Y-93017544D02*
X127682419Y-92922306D01*
X127682419Y-92922306D02*
X127682419Y-92731830D01*
X127682419Y-92731830D02*
X127634800Y-92636592D01*
X127634800Y-92636592D02*
X127587180Y-92588973D01*
X127587180Y-92588973D02*
X127491942Y-92541354D01*
X127491942Y-92541354D02*
X127253847Y-92541354D01*
X127253847Y-92541354D02*
X127158609Y-92588973D01*
X127158609Y-92588973D02*
X127110990Y-92636592D01*
X127110990Y-92636592D02*
X127063371Y-92731830D01*
X127063371Y-92731830D02*
X127063371Y-92922306D01*
X127063371Y-92922306D02*
X127110990Y-93017544D01*
X127110990Y-93017544D02*
X127158609Y-93065163D01*
X127158609Y-93065163D02*
X127253847Y-93112782D01*
X120182419Y-95446115D02*
X119182419Y-95446115D01*
X119182419Y-94779449D02*
X119182419Y-94684211D01*
X119182419Y-94684211D02*
X119230038Y-94588973D01*
X119230038Y-94588973D02*
X119277657Y-94541354D01*
X119277657Y-94541354D02*
X119372895Y-94493735D01*
X119372895Y-94493735D02*
X119563371Y-94446116D01*
X119563371Y-94446116D02*
X119801466Y-94446116D01*
X119801466Y-94446116D02*
X119991942Y-94493735D01*
X119991942Y-94493735D02*
X120087180Y-94541354D01*
X120087180Y-94541354D02*
X120134800Y-94588973D01*
X120134800Y-94588973D02*
X120182419Y-94684211D01*
X120182419Y-94684211D02*
X120182419Y-94779449D01*
X120182419Y-94779449D02*
X120134800Y-94874687D01*
X120134800Y-94874687D02*
X120087180Y-94922306D01*
X120087180Y-94922306D02*
X119991942Y-94969925D01*
X119991942Y-94969925D02*
X119801466Y-95017544D01*
X119801466Y-95017544D02*
X119563371Y-95017544D01*
X119563371Y-95017544D02*
X119372895Y-94969925D01*
X119372895Y-94969925D02*
X119277657Y-94922306D01*
X119277657Y-94922306D02*
X119230038Y-94874687D01*
X119230038Y-94874687D02*
X119182419Y-94779449D01*
X119182419Y-94112782D02*
X119182419Y-93493735D01*
X119182419Y-93493735D02*
X119563371Y-93827068D01*
X119563371Y-93827068D02*
X119563371Y-93684211D01*
X119563371Y-93684211D02*
X119610990Y-93588973D01*
X119610990Y-93588973D02*
X119658609Y-93541354D01*
X119658609Y-93541354D02*
X119753847Y-93493735D01*
X119753847Y-93493735D02*
X119991942Y-93493735D01*
X119991942Y-93493735D02*
X120087180Y-93541354D01*
X120087180Y-93541354D02*
X120134800Y-93588973D01*
X120134800Y-93588973D02*
X120182419Y-93684211D01*
X120182419Y-93684211D02*
X120182419Y-93969925D01*
X120182419Y-93969925D02*
X120134800Y-94065163D01*
X120134800Y-94065163D02*
X120087180Y-94112782D01*
X119515752Y-92636592D02*
X120182419Y-92636592D01*
X119134800Y-92874687D02*
X119849085Y-93112782D01*
X119849085Y-93112782D02*
X119849085Y-92493735D01*
X108932419Y-95838972D02*
X109932419Y-95505639D01*
X109932419Y-95505639D02*
X108932419Y-95172306D01*
X108932419Y-94934210D02*
X108932419Y-94315163D01*
X108932419Y-94315163D02*
X109313371Y-94648496D01*
X109313371Y-94648496D02*
X109313371Y-94505639D01*
X109313371Y-94505639D02*
X109360990Y-94410401D01*
X109360990Y-94410401D02*
X109408609Y-94362782D01*
X109408609Y-94362782D02*
X109503847Y-94315163D01*
X109503847Y-94315163D02*
X109741942Y-94315163D01*
X109741942Y-94315163D02*
X109837180Y-94362782D01*
X109837180Y-94362782D02*
X109884800Y-94410401D01*
X109884800Y-94410401D02*
X109932419Y-94505639D01*
X109932419Y-94505639D02*
X109932419Y-94791353D01*
X109932419Y-94791353D02*
X109884800Y-94886591D01*
X109884800Y-94886591D02*
X109837180Y-94934210D01*
X108932419Y-94029448D02*
X109932419Y-93696115D01*
X109932419Y-93696115D02*
X108932419Y-93362782D01*
X108932419Y-93124686D02*
X108932419Y-92505639D01*
X108932419Y-92505639D02*
X109313371Y-92838972D01*
X109313371Y-92838972D02*
X109313371Y-92696115D01*
X109313371Y-92696115D02*
X109360990Y-92600877D01*
X109360990Y-92600877D02*
X109408609Y-92553258D01*
X109408609Y-92553258D02*
X109503847Y-92505639D01*
X109503847Y-92505639D02*
X109741942Y-92505639D01*
X109741942Y-92505639D02*
X109837180Y-92553258D01*
X109837180Y-92553258D02*
X109884800Y-92600877D01*
X109884800Y-92600877D02*
X109932419Y-92696115D01*
X109932419Y-92696115D02*
X109932419Y-92981829D01*
X109932419Y-92981829D02*
X109884800Y-93077067D01*
X109884800Y-93077067D02*
X109837180Y-93124686D01*
X132682419Y-120446115D02*
X131682419Y-120446115D01*
X131682419Y-119779449D02*
X131682419Y-119684211D01*
X131682419Y-119684211D02*
X131730038Y-119588973D01*
X131730038Y-119588973D02*
X131777657Y-119541354D01*
X131777657Y-119541354D02*
X131872895Y-119493735D01*
X131872895Y-119493735D02*
X132063371Y-119446116D01*
X132063371Y-119446116D02*
X132301466Y-119446116D01*
X132301466Y-119446116D02*
X132491942Y-119493735D01*
X132491942Y-119493735D02*
X132587180Y-119541354D01*
X132587180Y-119541354D02*
X132634800Y-119588973D01*
X132634800Y-119588973D02*
X132682419Y-119684211D01*
X132682419Y-119684211D02*
X132682419Y-119779449D01*
X132682419Y-119779449D02*
X132634800Y-119874687D01*
X132634800Y-119874687D02*
X132587180Y-119922306D01*
X132587180Y-119922306D02*
X132491942Y-119969925D01*
X132491942Y-119969925D02*
X132301466Y-120017544D01*
X132301466Y-120017544D02*
X132063371Y-120017544D01*
X132063371Y-120017544D02*
X131872895Y-119969925D01*
X131872895Y-119969925D02*
X131777657Y-119922306D01*
X131777657Y-119922306D02*
X131730038Y-119874687D01*
X131730038Y-119874687D02*
X131682419Y-119779449D01*
X131682419Y-118541354D02*
X131682419Y-119017544D01*
X131682419Y-119017544D02*
X132158609Y-119065163D01*
X132158609Y-119065163D02*
X132110990Y-119017544D01*
X132110990Y-119017544D02*
X132063371Y-118922306D01*
X132063371Y-118922306D02*
X132063371Y-118684211D01*
X132063371Y-118684211D02*
X132110990Y-118588973D01*
X132110990Y-118588973D02*
X132158609Y-118541354D01*
X132158609Y-118541354D02*
X132253847Y-118493735D01*
X132253847Y-118493735D02*
X132491942Y-118493735D01*
X132491942Y-118493735D02*
X132587180Y-118541354D01*
X132587180Y-118541354D02*
X132634800Y-118588973D01*
X132634800Y-118588973D02*
X132682419Y-118684211D01*
X132682419Y-118684211D02*
X132682419Y-118922306D01*
X132682419Y-118922306D02*
X132634800Y-119017544D01*
X132634800Y-119017544D02*
X132587180Y-119065163D01*
X144730038Y-119922306D02*
X144682419Y-120017544D01*
X144682419Y-120017544D02*
X144682419Y-120160401D01*
X144682419Y-120160401D02*
X144730038Y-120303258D01*
X144730038Y-120303258D02*
X144825276Y-120398496D01*
X144825276Y-120398496D02*
X144920514Y-120446115D01*
X144920514Y-120446115D02*
X145110990Y-120493734D01*
X145110990Y-120493734D02*
X145253847Y-120493734D01*
X145253847Y-120493734D02*
X145444323Y-120446115D01*
X145444323Y-120446115D02*
X145539561Y-120398496D01*
X145539561Y-120398496D02*
X145634800Y-120303258D01*
X145634800Y-120303258D02*
X145682419Y-120160401D01*
X145682419Y-120160401D02*
X145682419Y-120065163D01*
X145682419Y-120065163D02*
X145634800Y-119922306D01*
X145634800Y-119922306D02*
X145587180Y-119874687D01*
X145587180Y-119874687D02*
X145253847Y-119874687D01*
X145253847Y-119874687D02*
X145253847Y-120065163D01*
X145682419Y-119446115D02*
X144682419Y-119446115D01*
X144682419Y-119446115D02*
X145682419Y-118874687D01*
X145682419Y-118874687D02*
X144682419Y-118874687D01*
X145682419Y-118398496D02*
X144682419Y-118398496D01*
X144682419Y-118398496D02*
X144682419Y-118160401D01*
X144682419Y-118160401D02*
X144730038Y-118017544D01*
X144730038Y-118017544D02*
X144825276Y-117922306D01*
X144825276Y-117922306D02*
X144920514Y-117874687D01*
X144920514Y-117874687D02*
X145110990Y-117827068D01*
X145110990Y-117827068D02*
X145253847Y-117827068D01*
X145253847Y-117827068D02*
X145444323Y-117874687D01*
X145444323Y-117874687D02*
X145539561Y-117922306D01*
X145539561Y-117922306D02*
X145634800Y-118017544D01*
X145634800Y-118017544D02*
X145682419Y-118160401D01*
X145682419Y-118160401D02*
X145682419Y-118398496D01*
X125182419Y-120446115D02*
X124182419Y-120446115D01*
X124182419Y-119779449D02*
X124182419Y-119684211D01*
X124182419Y-119684211D02*
X124230038Y-119588973D01*
X124230038Y-119588973D02*
X124277657Y-119541354D01*
X124277657Y-119541354D02*
X124372895Y-119493735D01*
X124372895Y-119493735D02*
X124563371Y-119446116D01*
X124563371Y-119446116D02*
X124801466Y-119446116D01*
X124801466Y-119446116D02*
X124991942Y-119493735D01*
X124991942Y-119493735D02*
X125087180Y-119541354D01*
X125087180Y-119541354D02*
X125134800Y-119588973D01*
X125134800Y-119588973D02*
X125182419Y-119684211D01*
X125182419Y-119684211D02*
X125182419Y-119779449D01*
X125182419Y-119779449D02*
X125134800Y-119874687D01*
X125134800Y-119874687D02*
X125087180Y-119922306D01*
X125087180Y-119922306D02*
X124991942Y-119969925D01*
X124991942Y-119969925D02*
X124801466Y-120017544D01*
X124801466Y-120017544D02*
X124563371Y-120017544D01*
X124563371Y-120017544D02*
X124372895Y-119969925D01*
X124372895Y-119969925D02*
X124277657Y-119922306D01*
X124277657Y-119922306D02*
X124230038Y-119874687D01*
X124230038Y-119874687D02*
X124182419Y-119779449D01*
X124277657Y-119065163D02*
X124230038Y-119017544D01*
X124230038Y-119017544D02*
X124182419Y-118922306D01*
X124182419Y-118922306D02*
X124182419Y-118684211D01*
X124182419Y-118684211D02*
X124230038Y-118588973D01*
X124230038Y-118588973D02*
X124277657Y-118541354D01*
X124277657Y-118541354D02*
X124372895Y-118493735D01*
X124372895Y-118493735D02*
X124468133Y-118493735D01*
X124468133Y-118493735D02*
X124610990Y-118541354D01*
X124610990Y-118541354D02*
X125182419Y-119112782D01*
X125182419Y-119112782D02*
X125182419Y-118493735D01*
X124182419Y-118160401D02*
X124182419Y-117541354D01*
X124182419Y-117541354D02*
X124563371Y-117874687D01*
X124563371Y-117874687D02*
X124563371Y-117731830D01*
X124563371Y-117731830D02*
X124610990Y-117636592D01*
X124610990Y-117636592D02*
X124658609Y-117588973D01*
X124658609Y-117588973D02*
X124753847Y-117541354D01*
X124753847Y-117541354D02*
X124991942Y-117541354D01*
X124991942Y-117541354D02*
X125087180Y-117588973D01*
X125087180Y-117588973D02*
X125134800Y-117636592D01*
X125134800Y-117636592D02*
X125182419Y-117731830D01*
X125182419Y-117731830D02*
X125182419Y-118017544D01*
X125182419Y-118017544D02*
X125134800Y-118112782D01*
X125134800Y-118112782D02*
X125087180Y-118160401D01*
D11*
X116678207Y-86274580D02*
X116630588Y-86322200D01*
X116630588Y-86322200D02*
X116487731Y-86369819D01*
X116487731Y-86369819D02*
X116392493Y-86369819D01*
X116392493Y-86369819D02*
X116249636Y-86322200D01*
X116249636Y-86322200D02*
X116154398Y-86226961D01*
X116154398Y-86226961D02*
X116106779Y-86131723D01*
X116106779Y-86131723D02*
X116059160Y-85941247D01*
X116059160Y-85941247D02*
X116059160Y-85798390D01*
X116059160Y-85798390D02*
X116106779Y-85607914D01*
X116106779Y-85607914D02*
X116154398Y-85512676D01*
X116154398Y-85512676D02*
X116249636Y-85417438D01*
X116249636Y-85417438D02*
X116392493Y-85369819D01*
X116392493Y-85369819D02*
X116487731Y-85369819D01*
X116487731Y-85369819D02*
X116630588Y-85417438D01*
X116630588Y-85417438D02*
X116678207Y-85465057D01*
X117582969Y-86369819D02*
X117106779Y-86369819D01*
X117106779Y-86369819D02*
X117106779Y-85369819D01*
X117916303Y-86369819D02*
X117916303Y-85369819D01*
X118487731Y-86369819D02*
X118059160Y-85798390D01*
X118487731Y-85369819D02*
X117916303Y-85941247D01*
X126678207Y-86369819D02*
X126344874Y-85893628D01*
X126106779Y-86369819D02*
X126106779Y-85369819D01*
X126106779Y-85369819D02*
X126487731Y-85369819D01*
X126487731Y-85369819D02*
X126582969Y-85417438D01*
X126582969Y-85417438D02*
X126630588Y-85465057D01*
X126630588Y-85465057D02*
X126678207Y-85560295D01*
X126678207Y-85560295D02*
X126678207Y-85703152D01*
X126678207Y-85703152D02*
X126630588Y-85798390D01*
X126630588Y-85798390D02*
X126582969Y-85846009D01*
X126582969Y-85846009D02*
X126487731Y-85893628D01*
X126487731Y-85893628D02*
X126106779Y-85893628D01*
X127106779Y-86369819D02*
X127106779Y-85369819D01*
X127106779Y-85369819D02*
X127344874Y-85369819D01*
X127344874Y-85369819D02*
X127487731Y-85417438D01*
X127487731Y-85417438D02*
X127582969Y-85512676D01*
X127582969Y-85512676D02*
X127630588Y-85607914D01*
X127630588Y-85607914D02*
X127678207Y-85798390D01*
X127678207Y-85798390D02*
X127678207Y-85941247D01*
X127678207Y-85941247D02*
X127630588Y-86131723D01*
X127630588Y-86131723D02*
X127582969Y-86226961D01*
X127582969Y-86226961D02*
X127487731Y-86322200D01*
X127487731Y-86322200D02*
X127344874Y-86369819D01*
X127344874Y-86369819D02*
X127106779Y-86369819D01*
X128297255Y-85893628D02*
X128297255Y-86369819D01*
X127963922Y-85369819D02*
X128297255Y-85893628D01*
X128297255Y-85893628D02*
X128630588Y-85369819D01*
X108463922Y-81869819D02*
X108797255Y-82869819D01*
X108797255Y-82869819D02*
X109130588Y-81869819D01*
X109463922Y-82869819D02*
X109463922Y-81869819D01*
X109940112Y-82869819D02*
X109940112Y-81869819D01*
X109940112Y-81869819D02*
X110511540Y-82869819D01*
X110511540Y-82869819D02*
X110511540Y-81869819D01*
X121059160Y-86322200D02*
X121202017Y-86369819D01*
X121202017Y-86369819D02*
X121440112Y-86369819D01*
X121440112Y-86369819D02*
X121535350Y-86322200D01*
X121535350Y-86322200D02*
X121582969Y-86274580D01*
X121582969Y-86274580D02*
X121630588Y-86179342D01*
X121630588Y-86179342D02*
X121630588Y-86084104D01*
X121630588Y-86084104D02*
X121582969Y-85988866D01*
X121582969Y-85988866D02*
X121535350Y-85941247D01*
X121535350Y-85941247D02*
X121440112Y-85893628D01*
X121440112Y-85893628D02*
X121249636Y-85846009D01*
X121249636Y-85846009D02*
X121154398Y-85798390D01*
X121154398Y-85798390D02*
X121106779Y-85750771D01*
X121106779Y-85750771D02*
X121059160Y-85655533D01*
X121059160Y-85655533D02*
X121059160Y-85560295D01*
X121059160Y-85560295D02*
X121106779Y-85465057D01*
X121106779Y-85465057D02*
X121154398Y-85417438D01*
X121154398Y-85417438D02*
X121249636Y-85369819D01*
X121249636Y-85369819D02*
X121487731Y-85369819D01*
X121487731Y-85369819D02*
X121630588Y-85417438D01*
X122059160Y-86369819D02*
X122059160Y-85369819D01*
X122059160Y-85369819D02*
X122297255Y-85369819D01*
X122297255Y-85369819D02*
X122440112Y-85417438D01*
X122440112Y-85417438D02*
X122535350Y-85512676D01*
X122535350Y-85512676D02*
X122582969Y-85607914D01*
X122582969Y-85607914D02*
X122630588Y-85798390D01*
X122630588Y-85798390D02*
X122630588Y-85941247D01*
X122630588Y-85941247D02*
X122582969Y-86131723D01*
X122582969Y-86131723D02*
X122535350Y-86226961D01*
X122535350Y-86226961D02*
X122440112Y-86322200D01*
X122440112Y-86322200D02*
X122297255Y-86369819D01*
X122297255Y-86369819D02*
X122059160Y-86369819D01*
X123059160Y-86369819D02*
X123059160Y-85369819D01*
X118559160Y-82822200D02*
X118702017Y-82869819D01*
X118702017Y-82869819D02*
X118940112Y-82869819D01*
X118940112Y-82869819D02*
X119035350Y-82822200D01*
X119035350Y-82822200D02*
X119082969Y-82774580D01*
X119082969Y-82774580D02*
X119130588Y-82679342D01*
X119130588Y-82679342D02*
X119130588Y-82584104D01*
X119130588Y-82584104D02*
X119082969Y-82488866D01*
X119082969Y-82488866D02*
X119035350Y-82441247D01*
X119035350Y-82441247D02*
X118940112Y-82393628D01*
X118940112Y-82393628D02*
X118749636Y-82346009D01*
X118749636Y-82346009D02*
X118654398Y-82298390D01*
X118654398Y-82298390D02*
X118606779Y-82250771D01*
X118606779Y-82250771D02*
X118559160Y-82155533D01*
X118559160Y-82155533D02*
X118559160Y-82060295D01*
X118559160Y-82060295D02*
X118606779Y-81965057D01*
X118606779Y-81965057D02*
X118654398Y-81917438D01*
X118654398Y-81917438D02*
X118749636Y-81869819D01*
X118749636Y-81869819D02*
X118987731Y-81869819D01*
X118987731Y-81869819D02*
X119130588Y-81917438D01*
X119559160Y-82869819D02*
X119559160Y-81869819D01*
X119559160Y-81869819D02*
X119797255Y-81869819D01*
X119797255Y-81869819D02*
X119940112Y-81917438D01*
X119940112Y-81917438D02*
X120035350Y-82012676D01*
X120035350Y-82012676D02*
X120082969Y-82107914D01*
X120082969Y-82107914D02*
X120130588Y-82298390D01*
X120130588Y-82298390D02*
X120130588Y-82441247D01*
X120130588Y-82441247D02*
X120082969Y-82631723D01*
X120082969Y-82631723D02*
X120035350Y-82726961D01*
X120035350Y-82726961D02*
X119940112Y-82822200D01*
X119940112Y-82822200D02*
X119797255Y-82869819D01*
X119797255Y-82869819D02*
X119559160Y-82869819D01*
X120749636Y-81869819D02*
X120940112Y-81869819D01*
X120940112Y-81869819D02*
X121035350Y-81917438D01*
X121035350Y-81917438D02*
X121130588Y-82012676D01*
X121130588Y-82012676D02*
X121178207Y-82203152D01*
X121178207Y-82203152D02*
X121178207Y-82536485D01*
X121178207Y-82536485D02*
X121130588Y-82726961D01*
X121130588Y-82726961D02*
X121035350Y-82822200D01*
X121035350Y-82822200D02*
X120940112Y-82869819D01*
X120940112Y-82869819D02*
X120749636Y-82869819D01*
X120749636Y-82869819D02*
X120654398Y-82822200D01*
X120654398Y-82822200D02*
X120559160Y-82726961D01*
X120559160Y-82726961D02*
X120511541Y-82536485D01*
X120511541Y-82536485D02*
X120511541Y-82203152D01*
X120511541Y-82203152D02*
X120559160Y-82012676D01*
X120559160Y-82012676D02*
X120654398Y-81917438D01*
X120654398Y-81917438D02*
X120749636Y-81869819D01*
D10*
X113478646Y-81872419D02*
X114097693Y-81872419D01*
X114097693Y-81872419D02*
X113764360Y-82253371D01*
X113764360Y-82253371D02*
X113907217Y-82253371D01*
X113907217Y-82253371D02*
X114002455Y-82300990D01*
X114002455Y-82300990D02*
X114050074Y-82348609D01*
X114050074Y-82348609D02*
X114097693Y-82443847D01*
X114097693Y-82443847D02*
X114097693Y-82681942D01*
X114097693Y-82681942D02*
X114050074Y-82777180D01*
X114050074Y-82777180D02*
X114002455Y-82824800D01*
X114002455Y-82824800D02*
X113907217Y-82872419D01*
X113907217Y-82872419D02*
X113621503Y-82872419D01*
X113621503Y-82872419D02*
X113526265Y-82824800D01*
X113526265Y-82824800D02*
X113478646Y-82777180D01*
X114383408Y-81872419D02*
X114716741Y-82872419D01*
X114716741Y-82872419D02*
X115050074Y-81872419D01*
X115288170Y-81872419D02*
X115907217Y-81872419D01*
X115907217Y-81872419D02*
X115573884Y-82253371D01*
X115573884Y-82253371D02*
X115716741Y-82253371D01*
X115716741Y-82253371D02*
X115811979Y-82300990D01*
X115811979Y-82300990D02*
X115859598Y-82348609D01*
X115859598Y-82348609D02*
X115907217Y-82443847D01*
X115907217Y-82443847D02*
X115907217Y-82681942D01*
X115907217Y-82681942D02*
X115859598Y-82777180D01*
X115859598Y-82777180D02*
X115811979Y-82824800D01*
X115811979Y-82824800D02*
X115716741Y-82872419D01*
X115716741Y-82872419D02*
X115431027Y-82872419D01*
X115431027Y-82872419D02*
X115335789Y-82824800D01*
X115335789Y-82824800D02*
X115288170Y-82777180D01*
D11*
X111130588Y-85417438D02*
X111035350Y-85369819D01*
X111035350Y-85369819D02*
X110892493Y-85369819D01*
X110892493Y-85369819D02*
X110749636Y-85417438D01*
X110749636Y-85417438D02*
X110654398Y-85512676D01*
X110654398Y-85512676D02*
X110606779Y-85607914D01*
X110606779Y-85607914D02*
X110559160Y-85798390D01*
X110559160Y-85798390D02*
X110559160Y-85941247D01*
X110559160Y-85941247D02*
X110606779Y-86131723D01*
X110606779Y-86131723D02*
X110654398Y-86226961D01*
X110654398Y-86226961D02*
X110749636Y-86322200D01*
X110749636Y-86322200D02*
X110892493Y-86369819D01*
X110892493Y-86369819D02*
X110987731Y-86369819D01*
X110987731Y-86369819D02*
X111130588Y-86322200D01*
X111130588Y-86322200D02*
X111178207Y-86274580D01*
X111178207Y-86274580D02*
X111178207Y-85941247D01*
X111178207Y-85941247D02*
X110987731Y-85941247D01*
X111606779Y-86369819D02*
X111606779Y-85369819D01*
X111606779Y-85369819D02*
X112178207Y-86369819D01*
X112178207Y-86369819D02*
X112178207Y-85369819D01*
X112654398Y-86369819D02*
X112654398Y-85369819D01*
X112654398Y-85369819D02*
X112892493Y-85369819D01*
X112892493Y-85369819D02*
X113035350Y-85417438D01*
X113035350Y-85417438D02*
X113130588Y-85512676D01*
X113130588Y-85512676D02*
X113178207Y-85607914D01*
X113178207Y-85607914D02*
X113225826Y-85798390D01*
X113225826Y-85798390D02*
X113225826Y-85941247D01*
X113225826Y-85941247D02*
X113178207Y-86131723D01*
X113178207Y-86131723D02*
X113130588Y-86226961D01*
X113130588Y-86226961D02*
X113035350Y-86322200D01*
X113035350Y-86322200D02*
X112892493Y-86369819D01*
X112892493Y-86369819D02*
X112654398Y-86369819D01*
X124178207Y-82774580D02*
X124130588Y-82822200D01*
X124130588Y-82822200D02*
X123987731Y-82869819D01*
X123987731Y-82869819D02*
X123892493Y-82869819D01*
X123892493Y-82869819D02*
X123749636Y-82822200D01*
X123749636Y-82822200D02*
X123654398Y-82726961D01*
X123654398Y-82726961D02*
X123606779Y-82631723D01*
X123606779Y-82631723D02*
X123559160Y-82441247D01*
X123559160Y-82441247D02*
X123559160Y-82298390D01*
X123559160Y-82298390D02*
X123606779Y-82107914D01*
X123606779Y-82107914D02*
X123654398Y-82012676D01*
X123654398Y-82012676D02*
X123749636Y-81917438D01*
X123749636Y-81917438D02*
X123892493Y-81869819D01*
X123892493Y-81869819D02*
X123987731Y-81869819D01*
X123987731Y-81869819D02*
X124130588Y-81917438D01*
X124130588Y-81917438D02*
X124178207Y-81965057D01*
X124559160Y-82822200D02*
X124702017Y-82869819D01*
X124702017Y-82869819D02*
X124940112Y-82869819D01*
X124940112Y-82869819D02*
X125035350Y-82822200D01*
X125035350Y-82822200D02*
X125082969Y-82774580D01*
X125082969Y-82774580D02*
X125130588Y-82679342D01*
X125130588Y-82679342D02*
X125130588Y-82584104D01*
X125130588Y-82584104D02*
X125082969Y-82488866D01*
X125082969Y-82488866D02*
X125035350Y-82441247D01*
X125035350Y-82441247D02*
X124940112Y-82393628D01*
X124940112Y-82393628D02*
X124749636Y-82346009D01*
X124749636Y-82346009D02*
X124654398Y-82298390D01*
X124654398Y-82298390D02*
X124606779Y-82250771D01*
X124606779Y-82250771D02*
X124559160Y-82155533D01*
X124559160Y-82155533D02*
X124559160Y-82060295D01*
X124559160Y-82060295D02*
X124606779Y-81965057D01*
X124606779Y-81965057D02*
X124654398Y-81917438D01*
X124654398Y-81917438D02*
X124749636Y-81869819D01*
X124749636Y-81869819D02*
X124987731Y-81869819D01*
X124987731Y-81869819D02*
X125130588Y-81917438D01*
%TO.C,T-SIM-A7670E1*%
D10*
X103560000Y-123070000D02*
X214100000Y-123070000D01*
X214100000Y-90000000D01*
X103560000Y-90000000D01*
X103560000Y-123070000D01*
%TO.C,MAX1*%
X105570000Y-57500000D02*
X130970000Y-57500000D01*
X130970000Y-87000000D01*
X105570000Y-87000000D01*
X105570000Y-57500000D01*
%TD*%
M02*
